<svg width="27" height="26" viewBox="0 0 27 26" fill="none" xmlns="http://www.w3.org/2000/svg">
<path d="M13.5 25C20.1274 25 25.5 19.6274 25.5 13C25.5 6.37258 20.1274 1 13.5 1M13.5 25C6.87258 25 1.5 19.6274 1.5 13C1.5 6.37258 6.87258 1 13.5 1M13.5 25C10.6005 25 8.25 19.6274 8.25 13C8.25 6.37258 10.6005 1 13.5 1M13.5 25C16.3995 25 18.75 19.6274 18.75 13C18.75 6.37258 16.3995 1 13.5 1M3.75 18.8326C5.94843 17.5737 9.60097 16.75 13.7351 16.75C18.0499 16.75 21.8401 17.6472 24 19M3.75 7.16744C5.94843 8.42634 9.60097 9.25 13.7351 9.25C18.0499 9.25 21.8401 8.3528 24 7" stroke="#39578A" stroke-width="2"/>
</svg>
