<svg width="27" height="24" viewBox="0 0 27 24" fill="none" xmlns="http://www.w3.org/2000/svg">
<path d="M10.0336 17.5V20.25C10.0336 20.9793 10.3258 21.6788 10.8458 22.1945C11.3659 22.7103 12.0713 23 12.8067 23L22.5126 23C23.2481 23 23.9534 22.7103 24.4735 22.1945C24.9936 21.6788 25.2857 20.9793 25.2857 20.25L25.2857 3.75C25.2857 3.02066 24.9936 2.32118 24.4735 1.80546C23.9534 1.28973 23.2481 1 22.5126 1L12.8067 1C12.0713 1 11.3659 1.28973 10.8458 1.80546C10.3258 2.32118 10.0336 3.02065 10.0336 3.75V6.5M18.353 12L1.71429 12M1.71429 12L5.87396 16.125M1.71429 12L5.87396 7.875" stroke="#39578A" stroke-width="2" stroke-linecap="round" stroke-linejoin="round"/>
</svg>
