<svg width="25" height="24" viewBox="0 0 25 24" fill="none" xmlns="http://www.w3.org/2000/svg">
<path d="M12.4998 2.5C12.5991 2.5 12.6956 2.52971 12.7771 2.58398L12.8533 2.64648C12.947 2.74025 12.9998 2.86739 12.9998 3V9.5H19.4978L19.6091 9.5127C19.6454 9.52116 19.6809 9.53435 19.7146 9.55078C19.7483 9.56724 19.7803 9.58695 19.8093 9.61035L19.8875 9.69043L19.8894 9.69238L21.8875 12.1895V12.1904C21.9571 12.2787 21.9958 12.3875 21.9958 12.5C21.9958 12.6125 21.9571 12.7213 21.8875 12.8096L19.8894 15.3076L19.8875 15.3096C19.841 15.3684 19.782 15.4163 19.7146 15.4492C19.6471 15.4821 19.5729 15.4996 19.4978 15.5H12.9998V20.5H15.4998C15.6323 20.5 15.7595 20.5528 15.8533 20.6465C15.947 20.7403 15.9998 20.8674 15.9998 21C15.9998 21.1326 15.947 21.2597 15.8533 21.3535C15.7595 21.4472 15.6323 21.5 15.4998 21.5H9.49976C9.36725 21.4999 9.23994 21.4472 9.14624 21.3535C9.05256 21.2598 8.99976 21.1325 8.99976 21C8.99976 20.8675 9.05256 20.7402 9.14624 20.6465C9.23994 20.5528 9.36725 20.5001 9.49976 20.5H11.9998V10.5H5.50269C5.42761 10.4997 5.35339 10.4821 5.28589 10.4492C5.25216 10.4328 5.22021 10.413 5.19116 10.3896L5.11206 10.3096L5.11011 10.3076L3.11206 7.80957C3.04251 7.72137 3.00464 7.61234 3.00464 7.5L3.01147 7.41699C3.02533 7.33466 3.05982 7.25668 3.11206 7.19043L3.11108 7.18945L5.11011 4.69238L5.11206 4.69043C5.15862 4.6315 5.21837 4.58367 5.28589 4.55078C5.31971 4.53431 5.35495 4.52116 5.39136 4.5127L5.50269 4.5H11.9998V3C11.9998 2.90062 12.0294 2.80416 12.0837 2.72266L12.1462 2.64648C12.2166 2.57615 12.306 2.52897 12.4021 2.50977L12.4998 2.5ZM12.9998 14.5H19.2605L19.4109 14.3125L20.6101 12.8125L20.8601 12.5L20.6101 12.1875L19.4109 10.6875L19.2605 10.5H12.9998V14.5ZM5.5896 5.6875L4.3894 7.1875L4.1394 7.5L4.3894 7.8125L5.5896 9.3125L5.73999 9.5H11.9998V5.5H5.73999L5.5896 5.6875Z" fill="#39578A" stroke="#39578A"/>
</svg>
