<svg width="27" height="24" viewBox="0 0 27 24" fill="none" xmlns="http://www.w3.org/2000/svg">
<path d="M24.14 22L5.14 3M11.22 10.526C10.747 11.0475 10.46 11.7324 10.46 12.4827C10.46 14.1164 11.8211 15.4408 13.5 15.4408C14.2741 15.4408 14.9806 15.1592 15.5174 14.6956M24.1892 15.4408C25.2357 13.8741 25.66 12.5964 25.66 12.5964C25.66 12.5964 22.8928 3.76 13.5 3.76C12.9727 3.76 12.4662 3.78785 11.98 3.84042M20.34 19.276C18.5953 20.389 16.3491 21.1761 13.5 21.1295C4.2241 20.9778 1.34 12.5964 1.34 12.5964C1.34 12.5964 2.67995 8.31756 6.66 5.71487" stroke="#F7F4F3" stroke-width="2" stroke-linecap="round"/>
</svg>
