<svg width="25" height="24" viewBox="0 0 25 24" fill="none" xmlns="http://www.w3.org/2000/svg">
<path d="M10.6004 0C10.9187 1.26282e-07 11.224 0.126519 11.449 0.351562C11.674 0.576597 11.8006 0.881982 11.8006 1.2002V3.59961H17.8006C17.9808 3.60047 18.1582 3.64278 18.3201 3.72168C18.482 3.80056 18.6244 3.91439 18.7361 4.05566L21.1365 7.05566C21.3069 7.26841 21.3992 7.53314 21.3992 7.80566C21.3992 8.0782 21.3068 8.34288 21.1365 8.55566L18.7361 11.5557C18.6233 11.6948 18.4809 11.807 18.3192 11.8838C18.1572 11.9606 17.9798 12.0006 17.8006 12H11.8006V21.5996H14.2C14.5181 21.5996 14.8236 21.7263 15.0486 21.9512C15.2736 22.1762 15.4002 22.4816 15.4002 22.7998C15.4002 23.1181 15.2737 23.4234 15.0486 23.6484C14.8236 23.8734 14.5182 24 14.2 24H7.00079C6.68258 24 6.37719 23.8734 6.15216 23.6484C5.92712 23.4234 5.8006 23.1181 5.8006 22.7998C5.80065 22.4816 5.92716 22.1762 6.15216 21.9512C6.37718 21.7263 6.68267 21.5996 7.00079 21.5996H9.40021V12H5.8006C5.48234 12 5.17701 11.8735 4.95197 11.6484C4.72692 11.4234 4.6004 11.1181 4.6004 10.7998V4.7998C4.60045 4.48162 4.72697 4.17617 4.95197 3.95117C5.17699 3.72625 5.48243 3.59961 5.8006 3.59961H9.40021V1.2002C9.40021 0.881981 9.52679 0.576597 9.75177 0.351562C9.97681 0.126519 10.2821 0 10.6004 0ZM7.00079 6V9.59961H17.2244L18.6649 7.7998L17.2244 6H7.00079Z" fill="#F7F4F3"/>
<path d="M10.6004 0C10.9187 1.26282e-07 11.224 0.126519 11.449 0.351562C11.674 0.576597 11.8006 0.881982 11.8006 1.2002V3.59961H17.8006C17.9808 3.60047 18.1582 3.64278 18.3201 3.72168C18.482 3.80056 18.6244 3.91439 18.7361 4.05566L21.1365 7.05566C21.3069 7.26841 21.3992 7.53314 21.3992 7.80566C21.3992 8.0782 21.3068 8.34288 21.1365 8.55566L18.7361 11.5557C18.6233 11.6948 18.4809 11.807 18.3192 11.8838C18.1572 11.9606 17.9798 12.0006 17.8006 12H11.8006V21.5996H14.2C14.5181 21.5996 14.8236 21.7263 15.0486 21.9512C15.2736 22.1762 15.4002 22.4816 15.4002 22.7998C15.4002 23.1181 15.2737 23.4234 15.0486 23.6484C14.8236 23.8734 14.5182 24 14.2 24H7.00079C6.68258 24 6.37719 23.8734 6.15216 23.6484C5.92712 23.4234 5.8006 23.1181 5.8006 22.7998C5.80065 22.4816 5.92716 22.1762 6.15216 21.9512C6.37718 21.7263 6.68267 21.5996 7.00079 21.5996H9.40021V12H5.8006C5.48234 12 5.17701 11.8735 4.95197 11.6484C4.72692 11.4234 4.6004 11.1181 4.6004 10.7998V4.7998C4.60045 4.48162 4.72697 4.17617 4.95197 3.95117C5.17699 3.72625 5.48243 3.59961 5.8006 3.59961H9.40021V1.2002C9.40021 0.881981 9.52679 0.576597 9.75177 0.351562C9.97681 0.126519 10.2821 0 10.6004 0ZM7.00079 6V9.59961H17.2244L18.6649 7.7998L17.2244 6H7.00079Z" stroke="#F7F4F3"/>
</svg>
