<svg width="27" height="24" viewBox="0 0 27 24" fill="none" xmlns="http://www.w3.org/2000/svg">
<path fill-rule="evenodd" clip-rule="evenodd" d="M3.25143 3.57756C4.37321 2.45612 5.89447 1.82613 7.48067 1.82613C9.06686 1.82613 10.5881 2.45612 11.7099 3.57756L13.4626 5.32877L15.2153 3.57756C15.7671 3.00622 16.4272 2.5505 17.157 2.237C17.8868 1.92349 18.6718 1.75847 19.4661 1.75157C20.2604 1.74467 21.0481 1.89602 21.7832 2.1968C22.5184 2.49757 23.1863 2.94175 23.7479 3.50341C24.3096 4.06507 24.7538 4.73297 25.0545 5.46813C25.3553 6.20329 25.5067 6.99099 25.4998 7.78527C25.4929 8.57954 25.3279 9.3645 25.0143 10.0943C24.7008 10.8241 24.2451 11.4842 23.6738 12.036L13.4626 22.2487L3.25143 12.036C2.12999 10.9142 1.5 9.39299 1.5 7.80679C1.5 6.2206 2.12999 4.69934 3.25143 3.57756V3.57756Z" fill="#39578A" stroke="#39578A" stroke-width="2" stroke-linejoin="round"/>
</svg>
