<svg width="25" height="24" viewBox="0 0 25 24" fill="none" xmlns="http://www.w3.org/2000/svg">
<path d="M10.6003 0C10.9186 1.26282e-07 11.2239 0.126519 11.449 0.351562C11.674 0.576597 11.8005 0.881982 11.8005 1.2002V3.59961H17.8005C17.9807 3.60047 18.1581 3.64278 18.3201 3.72168C18.482 3.80056 18.6244 3.91439 18.7361 4.05566L21.1365 7.05566C21.3068 7.26841 21.3991 7.53314 21.3992 7.80566C21.3992 8.0782 21.3067 8.34288 21.1365 8.55566L18.7361 11.5557C18.6233 11.6948 18.4809 11.807 18.3191 11.8838C18.1572 11.9606 17.9797 12.0006 17.8005 12H11.8005V21.5996H14.2C14.5181 21.5996 14.8236 21.7263 15.0486 21.9512C15.2736 22.1762 15.4001 22.4816 15.4001 22.7998C15.4001 23.1181 15.2736 23.4234 15.0486 23.6484C14.8235 23.8734 14.5182 24 14.2 24H7.00073C6.68252 24 6.37713 23.8734 6.1521 23.6484C5.92706 23.4234 5.80054 23.1181 5.80054 22.7998C5.80059 22.4816 5.9271 22.1762 6.1521 21.9512C6.37712 21.7263 6.68261 21.5996 7.00073 21.5996H9.40015V12H5.80054C5.48228 12 5.17695 11.8735 4.9519 11.6484C4.72686 11.4234 4.60034 11.1181 4.60034 10.7998V4.7998C4.60039 4.48162 4.72691 4.17617 4.9519 3.95117C5.17693 3.72625 5.48237 3.59961 5.80054 3.59961H9.40015V1.2002C9.40015 0.881981 9.52673 0.576597 9.75171 0.351562C9.97675 0.126519 10.2821 0 10.6003 0ZM7.00073 6V9.59961H17.2244L18.6648 7.7998L17.2244 6H7.00073Z" fill="#39578A"/>
<path d="M10.6003 0C10.9186 1.26282e-07 11.2239 0.126519 11.449 0.351562C11.674 0.576597 11.8005 0.881982 11.8005 1.2002V3.59961H17.8005C17.9807 3.60047 18.1581 3.64278 18.3201 3.72168C18.482 3.80056 18.6244 3.91439 18.7361 4.05566L21.1365 7.05566C21.3068 7.26841 21.3991 7.53314 21.3992 7.80566C21.3992 8.0782 21.3067 8.34288 21.1365 8.55566L18.7361 11.5557C18.6233 11.6948 18.4809 11.807 18.3191 11.8838C18.1572 11.9606 17.9797 12.0006 17.8005 12H11.8005V21.5996H14.2C14.5181 21.5996 14.8236 21.7263 15.0486 21.9512C15.2736 22.1762 15.4001 22.4816 15.4001 22.7998C15.4001 23.1181 15.2736 23.4234 15.0486 23.6484C14.8235 23.8734 14.5182 24 14.2 24H7.00073C6.68252 24 6.37713 23.8734 6.1521 23.6484C5.92706 23.4234 5.80054 23.1181 5.80054 22.7998C5.80059 22.4816 5.9271 22.1762 6.1521 21.9512C6.37712 21.7263 6.68261 21.5996 7.00073 21.5996H9.40015V12H5.80054C5.48228 12 5.17695 11.8735 4.9519 11.6484C4.72686 11.4234 4.60034 11.1181 4.60034 10.7998V4.7998C4.60039 4.48162 4.72691 4.17617 4.9519 3.95117C5.17693 3.72625 5.48237 3.59961 5.80054 3.59961H9.40015V1.2002C9.40015 0.881981 9.52673 0.576597 9.75171 0.351562C9.97675 0.126519 10.2821 0 10.6003 0ZM7.00073 6V9.59961H17.2244L18.6648 7.7998L17.2244 6H7.00073Z" stroke="#39578A"/>
</svg>
