<svg width="27" height="26" viewBox="0 0 27 26" fill="none" xmlns="http://www.w3.org/2000/svg">
<path d="M25.5 24.9618H24.5769C23.5977 24.9618 22.6585 24.5728 21.9661 23.8804C21.2736 23.1879 20.8846 22.2488 20.8846 21.2695C20.8846 22.2488 20.4956 23.1879 19.8032 23.8804C19.1107 24.5728 18.1716 24.9618 17.1923 24.9618C16.213 24.9618 15.2739 24.5728 14.5815 23.8804C13.889 23.1879 13.5 22.2488 13.5 21.2695C13.5 22.2488 13.111 23.1879 12.4185 23.8804C11.7261 24.5728 10.787 24.9618 9.80769 24.9618C8.82843 24.9618 7.88928 24.5728 7.19684 23.8804C6.50439 23.1879 6.11538 22.2488 6.11538 21.2695C6.11538 22.2488 5.72637 23.1879 5.03393 23.8804C4.34149 24.5728 3.40234 24.9618 2.42308 24.9618H1.5" stroke="#39578A" stroke-width="2" stroke-linecap="round" stroke-linejoin="round"/>
<path d="M19.0385 17.5773C18.0877 16.4214 16.8926 15.4903 15.5392 14.8511C14.1858 14.2119 12.7076 13.8804 11.2108 13.8804C9.714 13.8804 8.2358 14.2119 6.88238 14.8511C5.52895 15.4903 4.3339 16.4214 3.38309 17.5773" stroke="#39578A" stroke-width="2" stroke-linecap="round" stroke-linejoin="round"/>
<path d="M12.5769 13.9776C12.6877 9.80534 13.9615 6.00226 16.7308 4.63611" stroke="#39578A" stroke-width="2" stroke-linecap="round" stroke-linejoin="round"/>
<path d="M11.2108 1.12784C12.4075 0.892192 13.6491 1.12463 14.6795 1.77724C15.7099 2.42985 16.4507 3.4529 16.7492 4.63553" stroke="#39578A" stroke-width="2" stroke-linecap="round" stroke-linejoin="round"/>
<path d="M23.4877 5.31895C22.638 4.40146 21.4825 3.82576 20.2384 3.69999C18.9942 3.57421 17.7469 3.90701 16.7308 4.63588" stroke="#39578A" stroke-width="2" stroke-linecap="round" stroke-linejoin="round"/>
<path d="M9.95539 6.61122C10.6788 5.54544 11.7511 4.76515 12.9877 4.40461C14.2243 4.04407 15.5479 4.12583 16.7308 4.63584C17.9172 4.926 18.9445 5.66594 19.5955 6.69938C20.2466 7.73281 20.4705 8.97884 20.22 10.1743" stroke="#39578A" stroke-width="2" stroke-linecap="round" stroke-linejoin="round"/>
</svg>
