<?xml version="1.0" encoding="utf-8"?>
<!-- Generator: Adobe Illustrator 27.3.1, SVG Export Plug-In . SVG Version: 6.00 Build 0)  -->
<svg version="1.1" id="Camada_1" xmlns="http://www.w3.org/2000/svg" xmlns:xlink="http://www.w3.org/1999/xlink" x="0px" y="0px"
	 viewBox="0 0 512 512" style="enable-background:new 0 0 512 512;" xml:space="preserve">
<style type="text/css">
	.st0{fill:#FFFFFF;}
	.st1{fill:#2D2E83;}
	.st2{fill:#BE1622;}
	.st3{fill:#F9B233;}
</style>
<rect x="0.5" y="0.5" class="st0" width="511.5" height="511.5"/>
<g>
	<path class="st1" d="M372.1,264c46.6-31.1,93.3-62.2,139.9-93.3V512H0.5c0.8-0.6,1.5-1.2,2.3-1.7c39.3-26.2,78.6-52.4,117.8-78.6
		c40.9-27.3,81.7-54.6,122.6-81.8C286.2,321.2,329.1,292.6,372.1,264z"/>
	<path d="M325.3,211.3c-0.9-0.5-1.7-1.8-1.9-2.9c-1.9-8-2.8-16.3-5.6-23.9c-16-43-47-67.5-92.3-74.1c-1.5-0.2-2.4-0.7-3.2-2
		c-2.9-5.2-6-10.4-9.1-15.8c-3.1,5.4-6.1,10.5-9,15.7c-0.8,1.3-1.7,2-3.2,2.1c-1,0-1.9,0.3-2.8,0.4c-17,2-32.6,8-46.6,17.6
		c-27.8,19-43.8,45.5-48.3,78.8c-0.3,2.5-1.3,3.8-3.4,4.9c-4.8,2.7-9.6,5.5-14.6,8.4c5.6,3.2,10.8,6.2,16,9.4
		c0.8,0.5,1.6,1.6,1.7,2.5c1.8,16.7,7.1,32.3,16.1,46.4c18.9,29.7,46,46.8,80.8,51.5c2.5,0.3,3.8,1.3,4.9,3.4
		c2.7,4.9,5.5,9.7,8.4,14.7c3.2-5.5,6.2-10.8,9.3-15.9c0.5-0.8,1.5-1.6,2.5-1.8c6.5-1.4,13.1-2.2,19.4-4c20-5.7,37-16.4,50.9-31.8
		c15.7-17.5,25-38,27.9-61.4c0.3-2.4,1.3-3.5,3.2-4.5c4.9-2.7,9.7-5.5,14.8-8.5C335.7,217.3,330.5,214.4,325.3,211.3z M213,316.5
		c-53.5-0.4-95.9-43.3-95.7-96.1c0.2-54.3,44.1-97.2,98-95.9c54.8,1.4,94.5,46.1,93.9,96.9C308.7,274.6,265.4,316.5,213,316.5z"/>
	<path class="st0" d="M213,316.5c-53.5-0.4-95.9-43.3-95.7-96.1c0.2-54.3,44.1-97.3,98-95.9c54.8,1.4,94.4,46.1,93.9,96.9
		C308.7,274.6,265.4,316.5,213,316.5z M213.2,284.2c0.6-0.9,0.9-1.4,1.2-2c5.4-9.4,10.9-18.8,16.2-28.2c0.7-1.3,1.6-1.7,3-1.7
		c9.6,0.1,19.2,0,28.8,0c1.9,0,3.8,0,5.9,0c-0.3-0.7-0.5-1.2-0.7-1.5c-5.5-9.4-10.9-18.9-16.4-28.3c-0.7-1.3-1.1-2.3-0.2-3.7
		c3.5-5.9,6.9-11.8,10.3-17.8c2.3-4,4.6-8,7.1-12.3c-1.3,0-2.1,0-3,0c-10.6,0-21.1,0-31.7,0c-1.6,0-2.4-0.4-3.2-1.8
		c-2.4-4.5-5-8.9-7.6-13.3c-3.2-5.6-6.4-11.1-9.7-16.8c-0.4,0.5-0.6,0.8-0.8,1.2c-5.5,9.5-11,18.9-16.3,28.4
		c-0.9,1.7-1.9,2.4-3.9,2.3c-10.5-0.1-20.9-0.1-31.4,0c-0.8,0-1.6,0.1-2.6,0.1c0.3,0.6,0.4,1,0.6,1.3c5.5,9.5,10.9,18.9,16.4,28.3
		c0.8,1.3,1,2.4,0.1,3.9c-3.7,6.2-7.3,12.5-10.9,18.8c-2.1,3.6-4.2,7.3-6.4,11.2c1.3,0,2.2,0,3,0c10.6,0,21.1,0,31.7,0
		c1.6,0,2.4,0.4,3.2,1.8c1.8,3.3,3.7,6.5,5.6,9.7C205.4,270.5,209.2,277.2,213.2,284.2z"/>
	<path class="st2" d="M213.2,284.2c-4-7-7.9-13.7-11.7-20.3c-1.9-3.2-3.8-6.4-5.6-9.7c-0.7-1.4-1.6-1.8-3.2-1.8
		c-10.6,0.1-21.1,0-31.7,0c-0.9,0-1.7,0-3,0c2.3-3.9,4.4-7.6,6.4-11.2c3.6-6.3,7.2-12.6,10.9-18.8c0.9-1.5,0.7-2.5-0.1-3.9
		c-5.5-9.4-11-18.9-16.4-28.3c-0.2-0.3-0.3-0.7-0.6-1.3c1,0,1.8-0.1,2.6-0.1c10.5,0,20.9-0.1,31.4,0c2,0,3-0.7,3.9-2.3
		c5.4-9.5,10.9-18.9,16.3-28.4c0.2-0.3,0.4-0.6,0.8-1.2c3.3,5.7,6.5,11.3,9.7,16.8c2.6,4.4,5.1,8.8,7.6,13.3
		c0.8,1.4,1.7,1.8,3.2,1.8c10.6-0.1,21.1,0,31.7,0c0.8,0,1.7,0,3,0c-2.5,4.4-4.8,8.4-7.1,12.3c-3.4,5.9-6.8,11.9-10.3,17.8
		c-0.9,1.4-0.5,2.5,0.2,3.7c5.5,9.4,11,18.9,16.4,28.3c0.2,0.4,0.4,0.8,0.7,1.5c-2.1,0-4,0-5.9,0c-9.6,0-19.2,0-28.8,0
		c-1.4,0-2.3,0.4-3,1.7c-5.3,9.4-10.8,18.8-16.2,28.2C214.1,282.8,213.8,283.3,213.2,284.2z"/>
</g>
<path class="st3" d="M306.9,0c-2.7,1.8-5.3,3.5-8,5.3C256,34,213,62.6,170.1,91.2C113.4,129,56.7,166.8,0,204.6V0H306.9z"/>
</svg>
