<?xml version="1.0" encoding="utf-8"?>
<!-- Generator: Adobe Illustrator 27.3.1, SVG Export Plug-In . SVG Version: 6.00 Build 0)  -->
<svg version="1.1" id="Camada_1" xmlns="http://www.w3.org/2000/svg" xmlns:xlink="http://www.w3.org/1999/xlink" x="0px" y="0px"
	 viewBox="0 0 512 512" style="enable-background:new 0 0 512 512;" xml:space="preserve">
<style type="text/css">
	.st0{fill:#00008B;}
	
		.st1{clip-path:url(#SVGID_00000047058615300751028550000009474706076219310505_);stroke:#FFFFFF;stroke-width:64;stroke-miterlimit:426.6667;}
	
		.st2{clip-path:url(#SVGID_00000113344428362272779750000015155311904770110620_);stroke:#FF0000;stroke-width:42.6667;stroke-miterlimit:426.6667;}
	.st3{stroke:#FFFFFF;stroke-width:106.6667;stroke-miterlimit:10;}
	.st4{stroke:#FF0000;stroke-width:64;stroke-miterlimit:10;}
	.st5{fill:#FFFFFF;}
</style>
<path class="st0" d="M0,0h512v512H0V0z"/>
<g>
	<defs>
		<rect id="SVGID_1_" x="0" width="512" height="256"/>
	</defs>
	<clipPath id="SVGID_00000132789525818069170680000016987799158072725649_">
		<use xlink:href="#SVGID_1_"  style="overflow:visible;"/>
	</clipPath>
	
		<path style="clip-path:url(#SVGID_00000132789525818069170680000016987799158072725649_);stroke:#FFFFFF;stroke-width:64;stroke-miterlimit:426.6667;" d="
		M0,0l512,256 M512,0L0,256"/>
</g>
<g>
	<defs>
		<path id="SVGID_00000083077082581833778930000015782299468457997445_" d="M0,0v128h512v128L0,0z M512,0H256v256H0L512,0z"/>
	</defs>
	<clipPath id="SVGID_00000039107514998986961860000005981486620203597697_">
		<use xlink:href="#SVGID_00000083077082581833778930000015782299468457997445_"  style="overflow:visible;"/>
	</clipPath>
	
		<path style="clip-path:url(#SVGID_00000039107514998986961860000005981486620203597697_);stroke:#FF0000;stroke-width:42.6667;stroke-miterlimit:426.6667;" d="
		M0,0l512,256 M512,0L0,256"/>
</g>
<path class="st3" d="M256,0v256 M0,128h512"/>
<path class="st4" d="M256,0v256 M0,128h512"/>
<g>
	<g transform="matrix(2.1 0 0 2.1 2520 3780)">
		<path id="c" class="st5" d="M256,307.2l14.8,46l45.2-17.1l-26.8,40.3l41.6,24.7l-48.2,4.2l6.6,47.9L256,418.1l-33.3,35.1l6.6-47.9
			l-48.2-4.2l41.6-24.7L196,336.1l45.2,17.1L256,307.2z"/>
	</g>
</g>
</svg>
