<?xml version="1.0" encoding="utf-8"?>
<!-- Generator: Adobe Illustrator 27.3.1, SVG Export Plug-In . SVG Version: 6.00 Build 0)  -->
<svg version="1.1" id="Camada_1" xmlns="http://www.w3.org/2000/svg" xmlns:xlink="http://www.w3.org/1999/xlink" x="0px" y="0px"
	 viewBox="0 0 512 512" style="enable-background:new 0 0 512 512;" xml:space="preserve">
<style type="text/css">
	.st0{fill:#29235C;}
	.st1{fill:#128BBF;}
	.st2{fill:#E8ECE9;}
	.st3{fill:#69522B;}
	.st4{fill:#BCA76B;}
	.st5{fill:#CFA763;}
	.st6{fill:#D7C99C;}
	.st7{fill:#7FB8C1;}
	.st8{fill:none;stroke:#000000;stroke-width:2;}
	.st9{fill:none;stroke:#000000;stroke-width:0.6565;stroke-miterlimit:5.2518;}
	.st10{fill:#666666;}
	.st11{fill:#BCA76B;stroke:#472B1F;stroke-width:0.3767;stroke-miterlimit:5.2518;}
	.st12{fill:#333333;stroke:#000000;stroke-width:1.313;stroke-miterlimit:5.2518;}
	.st13{fill:#472B1F;}
	.st14{fill:#FFFFFF;}
	.st15{fill:#C8102E;}
	.st16{fill:none;stroke:#472B1F;stroke-width:1.313;stroke-miterlimit:5.2518;}
	.st17{fill:#BCA76B;stroke:#472B1F;stroke-width:0.3939;stroke-miterlimit:5.2518;}
	.st18{fill:#BCA76B;stroke:#472B1F;stroke-width:0.3802;stroke-miterlimit:5.2518;}
	.st19{fill:#BCA76B;stroke:#472B1F;stroke-width:0.5218;stroke-miterlimit:5.2518;}
	.st20{fill:#BCA76B;stroke:#472B1F;stroke-width:0.6376;stroke-miterlimit:5.2518;}
	.st21{fill:#BCA76B;stroke:#472B1F;stroke-width:0.546;stroke-miterlimit:5.2518;}
	.st22{fill:#BCA76B;stroke:#472B1F;stroke-width:0.5286;stroke-miterlimit:5.2518;}
	.st23{fill:#BCA76B;stroke:#472B1F;stroke-width:0.557;stroke-miterlimit:5.2518;}
	.st24{fill:#BCA76B;stroke:#472B1F;stroke-width:0.6806;stroke-miterlimit:5.2518;}
	.st25{fill:#BCA76B;stroke:#472B1F;stroke-width:0.5828;stroke-miterlimit:5.2518;}
	.st26{fill:#BCA76B;stroke:#472B1F;stroke-width:0.5642;stroke-miterlimit:5.2518;}
	.st27{fill:#BCA76B;stroke:#472B1F;stroke-width:0.571;stroke-miterlimit:5.2518;}
	.st28{fill:#BCA76B;stroke:#472B1F;stroke-width:0.6978;stroke-miterlimit:5.2518;}
	.st29{fill:#BCA76B;stroke:#472B1F;stroke-width:0.5975;stroke-miterlimit:5.2518;}
	.st30{fill:#BCA76B;stroke:#472B1F;stroke-width:0.5784;stroke-miterlimit:5.2518;}
	.st31{fill:#BCA76B;stroke:#472B1F;stroke-width:0.336;stroke-miterlimit:5.2518;}
	.st32{stroke:#000000;stroke-width:0.3939;stroke-miterlimit:5.2518;}
	.st33{fill:#BCA76B;stroke:#472B1F;stroke-width:0.3783;stroke-miterlimit:5.2518;}
	.st34{fill:#BCA76B;stroke:#472B1F;stroke-width:0.3264;stroke-miterlimit:5.2518;}
	.st35{fill:#BCA76B;stroke:#472B1F;stroke-width:0.298;stroke-miterlimit:5.2518;}
	.st36{fill:#BCA76B;stroke:#472B1F;stroke-width:0.3217;stroke-miterlimit:5.2518;}
	.st37{fill:#333333;}
	.st38{fill:#BCA76B;stroke:#472B1F;stroke-width:0.352;stroke-miterlimit:5.2518;}
	.st39{fill:#BCA76B;stroke:#472B1F;stroke-width:0.4556;stroke-miterlimit:5.2518;}
	.st40{stroke:#000000;stroke-width:0.9191;stroke-miterlimit:5.2518;}
	.st41{fill:#BCA76B;stroke:#472B1F;stroke-width:0.4335;stroke-miterlimit:5.2518;}
	.st42{fill:#BCA76B;stroke:#472B1F;stroke-width:0.5298;stroke-miterlimit:5.2518;}
	.st43{fill:#BCA76B;stroke:#472B1F;stroke-width:0.4536;stroke-miterlimit:5.2518;}
	.st44{fill:#BCA76B;stroke:#472B1F;stroke-width:0.4392;stroke-miterlimit:5.2518;}
	.st45{fill:#BCA76B;stroke:#472B1F;stroke-width:0.6013;stroke-miterlimit:5.2518;}
	.st46{fill:#BCA76B;stroke:#472B1F;stroke-width:0.5008;stroke-miterlimit:5.2518;}
	.st47{fill:#BCA76B;stroke:#472B1F;stroke-width:0.5119;stroke-miterlimit:5.2518;}
	.st48{fill:#BCA76B;stroke:#472B1F;stroke-width:0.5248;stroke-miterlimit:5.2518;}
	.st49{fill:#BCA76B;stroke:#472B1F;stroke-width:0.7506;stroke-miterlimit:5.2518;}
	.st50{fill:#BCA76B;stroke:#472B1F;stroke-width:0.5491;stroke-miterlimit:5.2518;}
	.st51{fill:#BCA76B;stroke:#472B1F;stroke-width:0.5443;stroke-miterlimit:5.2518;}
	.st52{fill:#BCA76B;stroke:#472B1F;stroke-width:0.5683;stroke-miterlimit:5.2518;}
	.st53{fill:#BCA76B;stroke:#472B1F;stroke-width:0.6944;stroke-miterlimit:5.2518;}
	.st54{fill:#BCA76B;stroke:#472B1F;stroke-width:0.5946;stroke-miterlimit:5.2518;}
	.st55{fill:#BCA76B;stroke:#472B1F;stroke-width:0.6285;stroke-miterlimit:5.2518;}
	.st56{fill:#BCA76B;stroke:#472B1F;stroke-width:0.274;stroke-miterlimit:5.2518;}
	.st57{fill:#BCA76B;stroke:#472B1F;stroke-width:0.2821;stroke-miterlimit:5.2518;}
	.st58{fill:none;stroke:#000000;stroke-width:1.313;stroke-miterlimit:5.2518;}
	.st59{fill:#69737C;stroke:#000000;stroke-width:0.7288;stroke-miterlimit:1.9433;}
	.st60{fill:#66452B;stroke:#000000;stroke-width:0.7288;stroke-miterlimit:1.9433;}
	.st61{fill:#69737C;}
	.st62{fill:none;stroke:#000000;stroke-width:0.7288;stroke-miterlimit:1.9433;}
	.st63{stroke:#000000;stroke-width:0.4858;stroke-miterlimit:1.9433;}
</style>
<rect x="0.5" y="0.5" class="st0" width="511.5" height="511.5"/>
<g>
	<path id="path17" class="st1" d="M355.5,213c-0.2,67.8-11,140.9-99.5,175.8C167.5,354,156.7,280.9,156.5,213H355.5z"/>
	<path id="path19" class="st2" d="M256,388.8c40.1-15.8,65-41.5,79.4-69c-2.3-0.8-6.8-0.8-8.6-0.2c-2.2-0.1-85.6-6.3-95.3-9.8
		c-8.5-3.1-41,2.6-56.2,8C189.4,347,213.9,372.2,256,388.8z"/>
	<path id="path21" class="st3" d="M194.2,346.7c1.4-0.4,3.9-0.3,5-0.1c1.2,0.2,1.4,0.3,1.9-1s1.4-1,2.2-0.3c0.8,0.6,2.7,0.3,3.5-0.8
		c0.8-1.1,1-1,1.7-0.2c0.8,0.8,1.1,0.5,1.9,0.3c0.8-0.2,2.1-1.1,2.7-2.3c0.7-1.2,1.6-1.6,2.2-1s1.1,1,1.9,0.9c0.8-0.1,1,0.6,0.9,1.6
		c-0.1,1,0.3,1.2,2.2-0.3c1.6,1.6,2.2,1,2.2-0.8c0-1.7-0.4-8.1-1.1-9c-0.7-0.9-1.3-3.3-1.4-5.3c-0.2-3.7-0.2-3.9-4.7-6.2
		c0-1.3-0.3-1.8-3.5-1.6c0.1-0.4-0.4-1.7-1.1-2.3c-0.7-0.5-0.8-0.8-0.4-2.3c1.3,0.1,2.7-0.1,3.5-1.2c0.8-1.1,3.3-0.9,4.8-0.2
		c1.5,0.6,3.5,0.8,6.4,0.3c1.1-0.9,2.9-1.8,4.9-2.9c2-1.1,2.5-1.5,2.6-3c0.3-3.9-1.1-8.3-2.2-10.4c-1.1-2.1-1.4-4.6-2.9-7.9
		c-1.7-3.5-1.6-4.4-3.5-6.6c-0.5-0.6-1.1-1.1-1.2-2.3c-0.1-1.2-0.5-2.8-1.8-4c-3.3-3-4.6-12.6-5.9-19.8c-0.7-4.1-0.2-13.7-2-15.2
		c-2.9-2.4-4.4-1.9-6.3-2.7c-1.4-1.9-2.1-5.8-3.4-9.3c-2.1,0.3-3.5,2.5-4.9,3.2c-1.4,0.8-1.6,0.8-1.6,2.7c0,1.9-1.1,4.6-3,7.7
		c-2,3-5.2,2.2-7.9,6.7c-6-7.2-6.1-9.3-6.5-11.3c-0.4-2-1.4-2.5-4.8-5.4c0-0.9-0.4-4.3-0.1-6.3c-2.5-2.1-4.4-1.7-5.5-0.2
		c-1.2,1.5-2.1,3.8-3.9,4.6c-1.1,1.4-4.5,4.9-7.2,9.1C159.9,279.6,168.5,316.9,194.2,346.7L194.2,346.7z"/>
	<path id="path23" class="st4" d="M355.5,213c0.1-25.6-1.4-50.4-0.7-72.1c-33.1-14.7-76.6-17.7-98.8-17.7c-22.2,0-65.7,3-98.8,17.7
		c0.7,21.7-0.8,46.6-0.7,72.1H355.5z"/>
	<path id="path27" class="st5" d="M161.9,242.6c1.1,1.7,3,4.7,3.3,6.3c0.8-1.6,1.4-2.3,1.5-3.2c0.2-1,1.3-2.9,0.9-3.9
		c-0.4-1-0.8-1.8,0.4-1.1c1.2,0.8,1,2.1,0.7,4c-0.7,5.3-2.9,6.4-3.3,9.9c3.2,7.5,0.8,10.2,4.3,17.5c0.5,0.3,2-0.3,2.4-0.1
		c1.8-1.3,3.2-0.8,5.8-0.3c2.6,0.5,4,2.4,4,4s0,2.1,0.5,3c0.5,1,1.6,2.5,1.4,3.6c-0.2,1.1,0.2,1.7,0.5,2.3c0.3,0.5-0.1,1.7-0.4,2.5
		s-0.2,1.7,1.1,3.3c1.3,1.6,4.3,8.4,4.3,12.4c0,4,0.2,5.8,1.9,6.6c1.6,0.8,2.2,1.4,2,3.1c-0.2,1.7,0.8,10.7,1,12.1s0.8,1.1,1.4,1.8
		c0.6,0.8,1.1,1.6,3.3,1.6c2.2,0,4.3-0.3,5.7-0.1c2,2.7,3.2,6.4,3.6,8.6c0.4,2.3,0.4,5.4,1.2,5.4s1.5,0.1,1.3-2.7
		c-0.2-2.8-0.4-3.2-1.4-4.6c-1-1.4-1.5-2.1-1-2.9c0.5-0.9,0.7-2.3,0.4-3.3c-0.2-1.1-0.5-2.7,1.3-0.5c1.9,2.2,2.4,2.7,2.9,3.5
		c0.5,0.8,0.8,2.2,0.7,3.5c-0.1,1.3,0.1,1.8,0.9,1.2c0.8-0.6,1.7,0.4,1.3,1.8c-0.4,1.4,0.1,2.3,1.4,2.7c1.3,0.4,1.9,0.8,2.2,1.7
		c0.3,1,1.4,1.4,1.4-0.5c0-1.9-0.8-6-1.3-7.3c-0.5-1.3-1-4.1-1.1-5.7c-0.1-1.6-0.4-2-1.2-2.4c-0.8-0.3-1.4-0.9-1.5-1.6s-0.8-1-1.3-1
		c-0.5,0-0.9-0.4-1.2-0.9s-0.5-0.6-1.1-0.6c-0.5-0.1-1.4,0.3-1.7-0.6c-0.3-0.9-0.7-2.1-1.2-2.8c-0.5-0.7-1-0.9-1.1-3.3
		c-0.1-2.4-0.1-2.8-0.9-3.6s-2.1-3.1-2.6-4.1c-0.5-1-1.1-1.9-1.1,0.1c0,2,0,3.1,1.3,3.9c1.3,0.8,1.6,0.8,1.1,1.8
		c-0.5,1.1,0,1.8,0.2,2.6c0.2,0.8,0.7,1.5,0,2.3c-0.7,0.8-1.3,0.5-1.2-0.6c0.1-1.2-0.3-2.6-0.9-3.6c-0.5-1-1-1.6-1.6-1.1
		c-0.7,0.5-1.2-0.1-0.8-0.5c0.4-0.4,0.3-0.8,0-1.1c-0.3-0.3-0.4-0.6,0.1-1.3c0.5-0.6,0.5-1,0.2-2.5c-0.3-1.5-2.7-9.1-3.8-10.8
		c-1.1-1.7-1-3,0.4-1.3c1.4,1.7,2.6,3.2,2.7,4.6c0.1,1.4,0.4,2.3,0.9,2.8c0.4,0.5,0.8,0.3,1-0.9c0.2-1.2,1.1-0.8-0.4-3
		c-1.5-2.3-4.4-6-5.4-12.8s-1.5-11.3-2.6-13.2c-1.1-1.8-1.4-2.3-1.5-4s0-3.5-0.8-4.7c-0.8-1.3-1.3-1.5-1.4,0.4
		c-0.1,1.9,0.1,6.3,0.7,7s0.2,2.7,0.1,3.8s-1.8,2.1,1.7,4.3c1.4,0.9,1.2,2.1,1,2.8c-0.2,0.8-0.4,0.6-1.2-0.5
		c-0.8-1.2-1.5-2.2-2.3-2.8c-0.8-0.6-0.9-1.1-0.8-2.6s0.4-2.6,0-3.1c-0.4-0.5-0.7-0.1-0.9,0.8c-0.2,0.9-0.4,3.2-0.9,3.9
		c-0.4,0.6-0.7,0.2-1-1.2c-0.3-1.4,0.1-3.6,0.9-6c0.8-2.5,1.2-5.1,0.5-8.3c-0.7-3.2-0.3-4.2-2.8-6.9c-2.5-2.7-5.3-5.3-6.5-8.6
		c-1.2-3.3-1.4-6.3-2.7-7.8c-1.3-1.5-3.2-3.5-4.3-4c0-2.6,0-3.8,0-5c0-1.2-0.5-1.9-2-1.7c-1.4,0.2-2.3,1.4-3.2,3
		c-0.9,1.6-1.5,0.9-2.7,3.7C163.6,238.2,161.9,239.6,161.9,242.6L161.9,242.6z"/>
	<path id="path29" class="st5" d="M169.7,274.2c0.9,0.5,1.7,0.9,3,0.3c1.3-0.6,2.9-2.5,4.6-0.7c1.7,1.8,2.7,4.9,2.7,7.2
		c0,2.4,0,6.8,2.7,9.3c2.7,2.5,4.1,5.1,4.2,8.3c0.1,3.2,1.3,8.2,1.6,9.5c0.3,1.3,1.1,2.8,2,3.7c0.9,0.9,1.5,3.3,1.6,5.9
		c0.1,2.6-0.3,4.4,0,5.7s0,2.4-1,1.7c-1-0.6-1.2-1-1.7-2.1c-0.5-1.1-1.2-0.9-0.7,0.8c0.5,1.6,2.2,3.1,3.6,3.1c1.4,0,1.9,0.2,2.7,1.1
		c0.9,0.9,1,1.3,2.5,1.3c1.5,0,1.7,0,3.2,0.4s1.4,0.2,2.2,0s1.5,0.4,2.1,1.8s1.9,5.3,1.9,6.4c0,1.1,0,2.2,0.8,3.2s0.5,2.2-0.3,1.5
		c-0.9-0.6-0.9-0.4-1.5-0.3c-0.7,0.1-1.1-0.2-2-0.8c-0.9-0.5-0.3-0.4-1.2-1.7s-1.4-1.7-1.4-0.8s-0.1,2.2-0.8,1.6s-1-0.5-1.5,0
		s-0.8,1-1.4-0.1c-0.7-1.1-1.4-1.1-2.1-1.3c-0.7-0.2-0.7-0.2-1-1.2c-0.3-1-1.3-1.2-2.2-1.2s-1.3-0.4-1.4-1.1
		c-0.1-0.6-0.7-1.1-1.1-1.4s-0.2-1.1-0.3-1.8s-0.8-0.4-1.2-0.6c-0.4-0.2-0.8-0.1-0.8-1.2s-0.4-1.4-0.8-2.2c-0.3-0.8,0-1.5,0.2-2.4
		c0.2-0.9,0.1-1.4-0.5-2.2c-0.7-0.8-0.1-1.5-1.9-3s-2.6-0.2-3.2-3.8c-0.5-3.6-1.6-10.9-2.6-12.1c-1-1.2-1.6-2.1-2.6-2.4
		c-1-0.3-1.6-0.1-1.7-2.2c-0.1-2-0.8-4.6-2.1-5.9c-1.3-1.3-1.9-1.7-2.5-2.3s-0.9-1.5,0-3.3c0.9-1.8,0.5-4.3,0.4-5.5
		c-0.1-1.2-0.4-2.7-0.2-4s0.1-2.9-0.2-3.8C169.6,275.1,169.2,274.9,169.7,274.2L169.7,274.2z"/>
	<path id="path95" class="st6" d="M202.8,333.3c-0.7,1.3-1.4,0.9-2.1,0.2c-0.7-0.6-1.4-0.6-1.1-1.8c0.3-1.2,0.2-1.4-0.7-2.1
		c-0.1-0.1-0.2-0.1-0.3-0.2c-0.3,0-0.6,0-1,0c-1.5,0-1.6-0.4-2.5-1.3c-0.2-0.2-0.4-0.3-0.5-0.5c0,0.2,0,0.5,0,0.8c0,1.2,0,1-1.2,1.3
		c-1.2,0.3-1-1.2-1.2-2.2c-0.1-0.2-0.1-0.4-0.2-0.6c-1.3-0.2-2.7-1.6-3.2-3.1c-0.5-1.6,0.1-1.8,0.7-0.8s0.8,1.4,1.7,2.1
		c1,0.6,1.3-0.4,1-1.7c-0.1-0.4-0.1-0.9-0.1-1.4c-0.2-0.4-0.6-0.8-1-0.9c-1.7-0.8-1.2-1-1.1-2.4c0.1-1.4-0.2-1.4-1.3-0.6
		c-1.1,0.8-1.2-0.1-1.2-2.3c0-2.2-1.4-2.2-1.7-0.6c-0.3,1.5-0.9,0.5-1.5-1.6c-0.7-2.2-1.5-2.7-1.6-0.6c-0.1,1.7-0.6,2.2-1.7,1.2
		c0.2,1.3,0.4,2.4,0.5,3.3c0.5,3.6,1.4,2.3,3.2,3.8c1.7,1.5,1.2,2.3,1.9,3c0.6,0.8,0.8,1.3,0.5,2.2c-0.2,0.9-0.5,1.6-0.2,2.4
		c0.3,0.8,0.8,1.1,0.8,2.2s0.3,1,0.8,1.2c0.3,0.1,0.6,0.1,0.9,0.2c0.3-0.4,0.5-0.8,0.9-1.1c1.3-1.3,3.3,0.1,3.9,1.7
		c0.7,1.6,1.4,2.1,2.4,0.8s0.7-1.1,1.7,0.1c1.1,1.2,1.5,1,1.5,1s1.1-0.4,1.9,0.2c0.8,0.6,1.2,0.5,2.6-1.5
		C205.5,331.4,203.5,332,202.8,333.3L202.8,333.3z"/>
	<g id="g187" transform="translate(-8e-5,-2.56e-4)">
		<path id="path97" class="st7" d="M203.8,348.4c2.6-0.2,9.7-2.3,10.4-2.9c1.7,1.2,4.8,2.8,6.1,2.8c-2.5,0.5-4.1,0.2-4.8-0.2
			c0.3,0.8,1.2,1.9,1.7,2.1c-2.4-0.1-5.1-0.6-6-1.5C209.2,349.5,205.7,349.7,203.8,348.4L203.8,348.4z"/>
		<path id="path99" class="st7" d="M208.5,351.7c0.9,0.3,5.5,1,6.1,1c-1.5,1.3-0.2,2.5,2.3,2.3c-1.3,0.2-2.6,0.6-1.7,0.8
			c2.2,0.4,8.3-1.2,9.5-1.8C222.7,356.6,212.6,359.1,208.5,351.7L208.5,351.7z"/>
		<path id="path101" class="st7" d="M212.6,358.2c1.2-0.6,4.3-0.4,5.8,0.3C216.8,359.1,213.6,359.1,212.6,358.2z"/>
		<path id="path103" class="st7" d="M217.3,358.1c2.2-0.4,8.5,1.1,10.8-0.2c-0.8,2-4.7,2.3-6.1,1.8c-1.4-0.4-2.7-1-3.6-0.9
			C218.9,358.6,218,358.5,217.3,358.1L217.3,358.1z"/>
		<path id="path105" class="st7" d="M219.6,361.2c1.7,0.3,7.7-0.5,9.6-1.2c2,0.6,5.8,1.7,6.7,1.6c-1.9,1.1-5.4,0.5-6.5,0
			C226,362.7,223.4,363,219.6,361.2z"/>
		<path id="path107" class="st7" d="M222.4,362.2c2.4,0.5,4.5,0.2,6.9-0.6c0.7,0.3,2.5,0.7,4.1,0.6c1.1,0.6,2.6,1.5,4,1.6
			c-1.5,0.6-6.9,0-7.9-0.6c-2.7,0.1-7.4,0.6-8.5,1.6C220.9,364,221.4,363,222.4,362.2z"/>
		<path id="path109" class="st7" d="M219.6,350c1.9,0.6,8.7,0.3,12.2-1.3c1.4-0.6,2.2,0.4,0.7,1c-5.7,1.9-10.1,2.7-13.4,1
			C217.7,350,217.6,349.4,219.6,350L219.6,350z"/>
		<path id="path111" class="st7" d="M253,340.9c-8.4,3.9-13.9,5.1-25.6,1.5c-1.1-0.3-1.9,0-0.7,0.8c1.2,0.8,7.6,2.5,9.1,2.6
			c1.5,0.1,1,0.8,0.1,1.1c-0.9,0.3-1.2,0.9,0.1,0.4c1.3-0.5,8.2-0.7,11.1,0.8c1.2,0.6,1.6,0.5,1.5,0.1c-0.1-0.5,0.5-0.8,1.5-0.9
			c0.9-0.1,1.5-0.4,0.8-0.7c-0.7-0.3-0.8-0.4-0.3-0.7c0.5-0.3,0.6-0.5-0.2-0.7c-0.8-0.2-1.4-0.4-0.6-0.8c0.8-0.4,1.9-0.6,2.8-0.8
			C252.7,343,252.3,341.4,253,340.9z"/>
		<path id="path113" class="st7" d="M239,341.8c4.8,0.3,13.6-1.8,18.3-6.4c1.6,1,3.9,2,5.1,2.3s2.3,1.3,0.4,1.3
			c-1.9,0-4.5-0.8-5.7-1.3c-6.2,3.8-13.5,5-18.1,4.6C237.8,342.3,237.5,341.7,239,341.8z"/>
		<path id="path115" class="st7" d="M231.5,328.3c-0.6,0.1-3.4,0.8-4.2,0.7c-0.8-0.1-1.5,0.2-1.5,0.7c0.1,0.5,0.3,0.9-0.9,0.8
			c-1.1-0.1-2.1,0.3-2.4,0.6s-0.5,0.6,0.7,0.8c1.1,0.1,1.7,0.2,3-0.4c1.3-0.6,2.6-1.5,4-1.6C231.6,329.9,233,328.1,231.5,328.3z"/>
		<path id="path117" class="st7" d="M227.6,331.7c1.2,0.8,7.1,2.8,9.2,2.6s1.7,0.8,0.1,1.2c-3.3,0.7-7.4-0.7-10.1-2.9
			C225.4,331.5,226.6,331.1,227.6,331.7L227.6,331.7z"/>
		<path id="path119" class="st7" d="M255.4,334.5c-4.5,1.4-9.1,0.9-10.9,0.4c-1.9-0.5-3.5-0.6-2.3,0.6c1.3,1.2,5.3,2,7.6,1.4
			c-8.1,1.8-10.2,1.7-12.2,1.4c-2-0.3-5.8-0.3-7.4-0.1c-1.2,0.1-2.8-0.1-3.5-0.5c-0.7-0.4-0.9-1.2,1.2-1c2.1,0.2,2.4-0.2,0.5-0.5
			c-1.9-0.3-4.4,0.5-1.9,2.1s8-0.1,11.5,0.9c3.5,1,10.9,1.7,17.9-3.9C256.1,334.9,256.8,334.1,255.4,334.5L255.4,334.5z"/>
		<path id="path121" class="st7" d="M244.9,330.1c-0.9,0.1-2.6-0.5-3.4-0.9s-2.1-0.4-1.2,0.8c0.9,1.2,4.9,1.9,6.4,1.4
			s0.8-1.2,2.2-0.4c1.4,0.9,2.9,1.5,3.9,1.5s1.4,0,0.3-0.6c-1.1-0.6-1.7-0.8-1.8-1.4s-0.3-0.9,0.8-0.5c1,0.3,2.2,0.9,3,0.5
			c0.8-0.4,2.3-1.4,3.7-1.4l0.3-0.8c-2-0.2-3.2,0.4-3.8,0.6s-1.5,0.3-2.6,0.2c-1-0.2-2.4-0.3-2.7-0.5s-0.3-0.5,0.5-0.6
			s1.1-0.8-0.1-0.5s-4.4,0.1-6.1-0.4c-1.7-0.5-2.4-0.6-3.1-0.3c-0.7,0.3-0.6,1,0.4,1.1c1,0.1,3.4,0.3,4.2,1s0.7,0.8-0.2,0.4
			C244.9,328.6,243.2,328.8,244.9,330.1L244.9,330.1z"/>
		<path id="path123" class="st7" d="M284.3,327.1c-3.3,2.4-7.2,2.9-11.9,3.2c-1.4,0.1-0.9,0.5,0.2,0.6c4.9,0.5,10.6-1.3,12.4-3.2
			C285.6,327.2,285.5,326.2,284.3,327.1z"/>
		<path id="path125" class="st7" d="M262,332.7c1.4,0.1,6.3,1.3,7.9,1.8c1.2-0.1,1.5-0.4,1.3-0.8c-0.2-0.4-0.4-0.9,1.8-0.8
			c2.2,0.1,7.2,0.1,8.1,0.1c0.8-0.3,2.4-1.6,3.2-1.7c-2,0.1-10.1,0.5-11.1,0.4c-1-0.1-1.6,0-2.2,0.4c-0.7,0.4-1,0.5-1.9,0.2
			c-0.8-0.3-2.3-0.8-3.1-0.3C265.2,332.5,263.5,332.1,262,332.7L262,332.7z"/>
		<path id="path127" class="st7" d="M281.1,332.9c0.8-0.3,2.4-1.6,3.2-1.7c1.4-0.1,3,0.5,3.8,0.6s1.6-0.1,1-0.6
			c-0.5-0.6-0.1-1.6,2.2-1.4c2.2,0.3,3.4,0.6,5.5,0.4c2.2-0.2,3.2,1.4,7.3-0.2c-0.3,1.6,0.4,1.7,1.2,1.4s1.6-0.2,2.9,0.8
			c1.3,1,9.2,1.1,11.1,0.8c1.8-0.3,2.8,0.6,1.4,1.1c-1.4,0.4-1.7,1.1-1.4,1.5c0.3,0.4,0.6,1-1.1,0.8c-1.7-0.2-2.1,0.3-2.9,1
			c-0.9,0.6-1.1,0.9-3.5,0.4c-2.4-0.4-2.8-0.1-4.1,0.1c-1.3,0.2-1.6,0.2-2.9-0.2c-1.3-0.4-4.1-0.9-5.9-0.3c-1.7,0.5-3,1.1-4.6,0.6
			s-1.6-0.2-0.7-1.2c1-1,1.2-0.9,3-1.1c1.9-0.2,3.3-0.8,2-1.5c-1.3-0.8-1.7-0.6-3.5,0.2s-2.6,1.4-4.6,0.3c-2-1.1-2.9-0.9-4.2-0.5
			C285.2,334.5,283,333.7,281.1,332.9L281.1,332.9z"/>
		<path id="path129" class="st7" d="M287.7,336.2c-2.5,0.4-3.2-1.2-5.8-0.9c-0.9,0.1-2.3,1.2-0.3,1c2-0.2,4.2,0.9,6.1,0.8
			C289.7,336.9,288.8,336,287.7,336.2z"/>
		<path id="path131" class="st7" d="M284.8,338.1c1.3-0.5,4,0.4,5.2,0.2s2.2,0.5,1,0.9s-4.1-0.7-5.4-0.3
			C284.3,339.2,283,338.7,284.8,338.1L284.8,338.1z"/>
		<path id="path133" class="st7" d="M258.8,345c1.8,0.1,8.3-0.2,10.8-5.6c0.2-0.4,0.4-0.6,1.2-0.1s3.8,2.3,9.4,2.8
			c1.6,0.1,3.3,0.9,0.1,0.7c-3.2-0.2-8.2-1.1-9.8-2.1c-2.8,4.4-7.9,4.9-11.7,4.9C256.5,345.6,257,345,258.8,345L258.8,345z"/>
		<path id="path135" class="st7" d="M272.8,337.7c-0.9,1.2-3.9,3.2-5.2,3.3c-1.4,0.1-5.4-0.3-6.5-0.6c-1-0.4-2.3-0.3-0.8,0.8
			c1.5,1,5.1,1.7,6.6,1.4c1.5-0.3,3.2-0.8,4.3-0.1s3.3,2,4.5,1.8c1.3-0.3,3.8-0.3,4.6,0.1c0.8,0.4,2.2,1.5,0.1,0.9
			c-2.1-0.6-3.9-0.1-4.8-0.5c1.1,1.5,3.6,3.9,5.7,3.9c0.5,0,0.8,0.9-0.2,1.4c1,0.5,3.4,0.9,4.7-0.3c-0.3,0.4-0.2,0.7,0.4,1
			s1.2,0.6,0.2,0.8s-3.2,0.4-3.9,0.1c2.1,1.3,7.6,3.5,13.2,2.4c1.1-0.2,1.6-0.6-0.1-0.6c-3.6,0.1-3.8,0.1-4.5-0.3
			c-0.7-0.4-0.5-0.7,0.5-1c1-0.3,3.6-0.7,4.7-0.7s2.2-0.4-0.1-0.4s-4.9,0-6-0.4s-1.9-0.9-0.8-1.6c1.1-0.8,2.3-0.5,2.9-1.2
			c-3.6-0.1-8-1.9-5.6-3.7c0.6-0.4,0.4-0.4-0.5-0.5c-0.9-0.1-3.6-0.9-4.8-1.5c-1.1-0.6-0.4-1.2,0.5-1.4
			C279.8,340.9,275.6,339.8,272.8,337.7L272.8,337.7z"/>
		<path id="path137" class="st7" d="M304.7,337.6c-2,1.5-5.7,2.1-7.2,2.1c-1.6,0-1.8,0.5-0.5,0.7c1.3,0.2,2.6,0.3,3.2,0.2
			c0.5-0.2,0.9-0.2,1.7,0.2c0.8,0.4,2.6,0.6,4.1,0.1c1.5-0.5,4-0.7,5.1-0.6s2.2,0.1,0.1-0.5c-2.1-0.6-5.4-0.2-6.3,0.1
			c-0.8,0.2-3,0.1-1.9-0.3c1.2-0.4,2.2-1,2.8-1.5C305.3,337.8,305,337.7,304.7,337.6L304.7,337.6z"/>
		<path id="path139" class="st7" d="M303.6,341.8c-1.7,1.2-4.1,2.4-6.6,2.5c2.3,0.8,4.2,3.1,5.7,3c-0.7,0.4-1.6,1.1-2.5,1.2
			c1.4,0.4,3.8-0.1,5.8-1.1c3.3,0.9,7.5,0.3,8.9-0.9c-2.1,0-4.7-0.8-5.8-1.7c1,0,2-0.6,2.5-1.2C309.1,344,304.9,342.8,303.6,341.8
			L303.6,341.8z"/>
		<path id="path141" class="st7" d="M300.2,348.5c0.9-0.1,1.8-0.8,2.5-1.2c-1.8,0.6-9.6-0.6-12-2.7c-2.3-2-2.3-0.5-0.7,1
			C291.6,347.1,294.5,349.3,300.2,348.5z"/>
		<path id="path143" class="st7" d="M305.9,353.5c-1,0.5-5.7,0.9-7.2,0.5c-1.5-0.3-2.2-0.2-1.8,0.4s0.5,1.1-0.7,1
			c-1.3-0.2-3.5,0.1-4.4,0.4c-0.9,0.3-2.1,1.1-0.1,0.8c2-0.3,3.8-0.7,5.2-0.3c1.5,0.4,6.7,0.5,7.7,0.1c1-0.4,0.3-0.4-0.2-0.4
			s-0.7-0.3,0-0.6S305.8,354.1,305.9,353.5L305.9,353.5z"/>
		<path id="path145" class="st7" d="M260.7,347.2c-2,0.9-8.5,2.6-10.2,2.7c-2.2,1-3.9,1.5-5,1.5c0.8,0.6,3.7,1.3,4.9,1
			c-0.7,0.6-2.2,1.4-2.7,1.7c1.7-0.2,3.8,0.2,4.7,0.3c-2.3,1.3-5.4,1.7-7.1,1.5c0.5,0.8,1.3,1.5,2.3,1.5c-2.1,0.5-4.6,0.5-5.9,0.1
			c0.5,1.1,1.1,1.7,1.9,1.8c-1.7,0.2-3.9,0.5-5.8-0.5c1.4,1.8,4.6,2.5,9.2,1.9c4.7-0.5,8.6-2.6,9.7-3.5c-2,0.2-4.6,0.3-5.9,0.1
			c2.6-0.6,8.3-3,9.2-4c-1.1,0-2.2-0.3-2.9-0.9c1.5,0.2,6.9-0.4,8.5-1.1c-2-0.4-3.2-1.6-3.7-2.4c6.9,2.2,14.5,1.5,18.2,0.5
			c0.9-0.2,1-1.3-0.8-1.2c-3,0.2-8.9-0.6-10.4-1.4c1.4,1.1,3.2,1.7,4.4,1.9C270.4,349.8,266.4,350.4,260.7,347.2L260.7,347.2z"/>
		<path id="path147" class="st7" d="M247.6,354.1c0.5-0.3,2.1-1.1,2.7-1.7c-1.2,0.3-4.1-0.3-4.9-1c1.1,0,2.8-0.5,5-1.5
			c-3.9-0.1-6.6-0.1-8-0.9c-1.4-0.8-4-0.5-5-0.3s-0.7,1.8,3.5,1.4c-1.7,1.2-6.4,1.6-8.2,1.2c0.4,1.4,0.8,2.8,0.3,3.6
			c2.3,1.3,8.3,2.9,11.2,2.7c-2.6-1-4-2.1-1.9-2.3S245.8,354.7,247.6,354.1L247.6,354.1z"/>
		<path id="path149" class="st7" d="M240.9,361.2c5.2-0.4,12.2-0.5,17.7-5.2c1.4-1.2,2.4-0.8,1,0.4c-2.9,2.6-10.2,6.2-17.2,6.3
			C239.6,362.7,238.3,361.4,240.9,361.2z"/>
		<path id="path151" class="st7" d="M279.9,352.6c-1.3,0.5-5,1.1-6,0.9c-1.1-0.2-2.7-0.2-3.5,0.3s-0.9,0.9,0.3,1
			c1.2,0.1,2.7,0.2,3.5,0.2c-1,0.5-1.6,1.3-1.9,1.6c1.7-0.4,4.9,0.3,5.9,0.9c-0.7,0.2-1.5-0.1-2.1-0.4c2.9,3.1,11.6,3.1,13.1,2.5
			c-0.7,0.5-1.3,1-1.9,1.1c2.4,0.4,5.3,0.4,8-1.2c-0.9,0.2-3.7-0.1-4.4-0.2c0.5-0.5,1.4-1,2.1-1.2c-1.1-0.2-4.5-0.1-5.3,0.3
			c0.3-0.6,0.9-1.5,1.6-1.7c-4.3,0-9.5-0.1-11.4-1.1c3,0.3,6.4-1.5,7.8-1.5C283.1,354.1,280.5,353.6,279.9,352.6L279.9,352.6z"/>
		<path id="path153" class="st7" d="M268.9,355c-2.1,0.4-5.3,1.3-6.2,1.8s-1.8,0.8,0.1,0.8c1.9,0,7.1,0.2,8.2,0.4
			c-2.9-0.4-6.8-0.5-7.6-0.5s-1.6-0.1-0.2-0.5C264.7,356.5,266.6,355.5,268.9,355L268.9,355z"/>
		<path id="path155" class="st7" d="M264.6,360c0.8,0,4.1,0,5.4-1.1c1.4,1,4,2.5,5.7,2.5c1.7,0,1.5,0.4,0.1,0.6
			c-1.5,0.2-4.3-0.7-5.8-1.8C268,360.9,266.3,360.3,264.6,360L264.6,360z"/>
		<path id="path157" class="st7" d="M239.5,374.5c3.4,1.3,7.8,2.3,11.1,1.2c1.9,1.6,5.7,1.7,7.7,1.3c2.1-0.4,3.9-0.6,6.2,0.1
			c2.3,0.8,7,0.8,8.3,1.9c-1.2,0.1-3.8,0-4.4,0.2c-0.6,0.2-0.3,0.5,0.8,1.1c-3.7-0.2-10.1,1.4-12,3c0.7-1.7,2.9-3.9,6.3-3.9
			c-2-0.7-8.2-0.8-10.2,0.5c-0.6-0.6-1.3-1.7-1.4-2.2C248.6,379.6,242.1,376.9,239.5,374.5L239.5,374.5z"/>
		<path id="path159" class="st7" d="M230.8,368.5c4-0.6,6.7-1.8,7.9-3c0.7,0.6,3.6,1.3,6.9,0.3c-0.7,0.5-0.7,1.4-0.4,1.9
			c-2.1,0.1-6.1,1.1-7.5,1.8c-1.4,0.7-5.3,1.2-6.6,0.5C229.7,369.3,229.7,368.7,230.8,368.5L230.8,368.5z"/>
		<path id="path161" class="st7" d="M245.2,367.7c-2.1,0.1-6.1,1.1-7.5,1.8c0.3,0.5,0.4,1.4,0.5,2c3.9-1.4,12.9-2.3,16.3-1.7
			c-1.6,0.1-4.7,1.8-6.5,2c4.2-0.3,8.4,0.5,9.5,0.8c1.1,0.3,1.3,1.1,0.5,1.8s-1.2,0.9,0.5,0.9c1.7,0.1,5.3-0.2,7-1.7
			c-0.7-0.7-2.3-0.4-2.8-0.9c1.1-0.4,2.4-1.2,2.9-1.8c-2.9-0.1-4-0.1-5-0.3c-1-0.2-1.7-0.5-0.5-1.1c1.2-0.6,1.7-1.2,2.1-1.6
			c-2.1,0.6-5.4,1.1-8.2-1.1c1,0.3,3.5,0.1,4.3-0.3c-0.9-0.5-1.7-0.9-2.4-0.9c2.2-1.1,6.6-2.1,12.1,0.1c2.7-0.2,5.7-0.1,7.7,0.4
			c0.9-0.9,2.7-2.9,3.7-3.5c-6.4,0.5-17.9-0.6-17.7-4c-2.1,2.7-6.9,4.2-8.9,3.8c-0.2,1,0.7,2.2,1.4,2.8c-2.2,0.4-5.9,0.8-7.6,0.4
			c1,1,2.8,1.8,3.9,1.7C248.2,367.4,247,367.9,245.2,367.7L245.2,367.7z"/>
		<path id="path163" class="st7" d="M258.5,375.3c1.7,0.1,5.3-0.2,7-1.7c-0.7-0.7-2.3-0.4-2.8-0.9c1.1-0.4,2.4-1.2,2.9-1.8
			c4.6-0.4,8.6-0.2,10.6-0.8c2-0.6,7-0.3,7.9-0.5c-4.4,0.7-5.2,1.1-5.4,1.8c-0.2,0.7,1.4,1.3,2.4,1.3c-2-0.1-4.4,1.9-4.6,2.8
			c-2.6-1.5-3.9,0.3-4.1,0.9c-1.1-0.4-4.7-0.3-6.5,1.2c-2.4-0.7-4-1.1-6.4-0.7C260.9,376.5,260.7,375.5,258.5,375.3L258.5,375.3z"/>
		<path id="path165" class="st7" d="M279.4,362.7c1.5-0.1,4.7,0.1,5.8-0.1c-0.8,0.4-1.7,1.1-2,1.4c3.7-0.4,8.8-0.7,10.2-0.5
			c-1.8-0.3-3.6,0.9-4.6,1.5s-0.4,1,0.9,1.1c1.3,0.2,2.9,1.1,0.7,0.8c-2.3-0.3-6.8-0.3-7.9-0.2c-1.1,0.2-1.7-0.4-0.1-0.6
			c1.6-0.2,2.7-0.8,3.4-1.2c-1.3,0.3-3.8,0.3-4.6,0.1c-0.8-0.2-1.3-0.6-0.4-0.9s0.3-0.5-0.7-0.4c-0.9,0.1-3.3,1.1-4.6,2.3
			C277.1,364.7,278.4,363.4,279.4,362.7L279.4,362.7z"/>
		<path id="path167" class="st7" d="M262.8,365.1c1.8,2,3.9,3.1,7.3,3.2c0.7,0,2,1,0.3,1c-4.6,0.2-6.9-0.9-8.9-3.8
			C261.1,364.9,261.9,364.1,262.8,365.1z"/>
		<path id="path169" class="st7" d="M320.8,340.5c-1.4,0.9-3.2,2.5-2,4.8c0.1-0.1,0.3-0.2,0.4-0.2c5.3-6.4,9.9-13.1,13.8-20.1
			c0-0.2,0.1-0.5,0.1-0.7c-1.5,1.3-3.9,2.6-4.9,2.9c0.7,1.7-2.4,4-4,4.6c0.7,1.1,0.4,2.7-1,3c0.3,1-0.8,1-2.1,1.5s-2,1-2.4,1.6
			c0.7-0.4,1.7-0.7,2.2-0.5c0.5,0.2,0.7,1-0.3,1.2s-1.6,0.8-2,1.2C320.1,339.3,322.1,339.6,320.8,340.5L320.8,340.5z"/>
		<path id="path171" class="st7" d="M224.9,315.9c1.6,1.1,4.5,3,8.3,2.8c1.9,1.5,4.7,2.7,6,3c-2.5,1-5.2,1.9-5.9,2.7
			c-1.1-1.1-2.6-0.9-3-1.5c-1.1,0.9-0.9,1.4-0.2,1.8c0.7,0.4,6.2,1.4,7.6,1s1.7,0.7,0.6,1.1c-2.9,1-8.6,0.1-10.6-3.1
			c-2-3.1-3.6-4.3-9-1.5c-0.6-1.5-0.6-1.9-1.6-1.9s-2.9-1.4-1.5-1.3S221.4,318.5,224.9,315.9L224.9,315.9z"/>
		<path id="path173" class="st7" d="M226.2,322.9c-0.9,0.2-3.5,1.6-4.4,1.7c-0.9,0.1-2.6,1.4-0.9,1.5c1.7,0.1,3.9-1.8,5.1-1.9
			C227.2,324,227.3,322.6,226.2,322.9z"/>
		<path id="path175" class="st7" d="M233.3,328c0.2,0.5,0.2,1.1,0,1.5s-0.2,0.9,0.5,0.3c0.7-0.5,1.1-1.2,1.9-0.8
			c0.7,0.4,2.5,0.3,3.3,0.2c0.8-0.1,1.1-0.3-0.1-0.8c-1.2-0.5-2.4-0.6-3-0.6c-0.7,0.1-1.5-0.1-2-0.3S233.2,327.4,233.3,328
			L233.3,328z"/>
		<path id="path177" class="st7" d="M259.1,328.1l-0.3,0.8c2-0.1,6.9,0.4,8.5,1.4c1.5-1.2,1.3-1.6,2.3-1.4s2.4,0.6,3,0.3
			s1-0.3,1.7-0.2c0.6,0.1,2.1-0.2,2.9-0.6s2.5-1.1,3.5-1.1c1,0,2.2-0.2,0.4-0.5c-1.8-0.3-4.5,0.3-5.4,0.6c-0.9,0.3-3.7,0.5-5.3,0.5
			s-3.9,0.8-5.7,0.3C262.7,327.8,260.2,328.1,259.1,328.1L259.1,328.1z"/>
		<path id="path179" class="st7" d="M290,327.4c2.4,1.1,7.2,2.1,11,1.9c0.7,0,2,0.7,0.3,0.8c-4.2,0.4-8-0.2-11.6-2.2
			C288.8,327.4,289.1,326.9,290,327.4L290,327.4z"/>
		<path id="path181" class="st7" d="M292.5,327.3c3.7-0.1,6.5-0.1,7.6,1c2.1-0.6,5.9-1,6.8-0.9c0.9,0.2,1.9-0.2-0.2-0.7
			c-2-0.5-6.7-0.6-8.2-0.4c-1.5,0.3-6,0.4-7.6,0.3C291.7,326.8,292.1,326.9,292.5,327.3L292.5,327.3z"/>
		<path id="path183" class="st7" d="M306.9,328.8c1.7-0.9,6.7-0.1,8.3-0.7c-1.1,1.3,3.5,1.4,7.5,0.4c-1.5,1-4.8,1.1-6.2,1.7
			c-1.4,0.6-2.2,0.2-3.3-0.3C312,329.4,309.3,328.4,306.9,328.8L306.9,328.8z"/>
		<path id="path185" class="st7" d="M322.6,328.4c-4,1-8.5,0.9-7.5-0.4c-1.5,0.6-6.5-0.2-8.3,0.7c1.8-1.1,3.2-0.2,4.5-2.4
			c0.8,0.2,2.7,0.3,3.4-0.6c1.1,0.3,3.2,0.8,3.8,1.3c0.6,0.6,1.5-0.2,0.8-1.1c1.8-0.6,0.7,0.8,4.8-0.3c0.9-0.2,3-0.6,3.7-0.6
			C326.3,326.2,324.6,327.5,322.6,328.4L322.6,328.4z"/>
	</g>
	<path id="path191" class="st8" d="M355.5,213c-0.2,67.8-11,140.9-99.5,175.8C167.5,354,156.7,280.9,156.5,213H355.5z"/>
	<g id="g207" transform="translate(-8e-5,-2.56e-4)">
		<path id="path193" class="st5" d="M196,243.5c-1.5,1.9-3,3.5-5.1,4.9c-2,1.4-4.6,2.6-3.2,5c1.5,2.4,2.6,2.7,2.9,4.6
			c0.3,1.9,0.7,3.5,2.2,3.9c1.5,0.4,2,0.1,2,3.2c0,3,0,4.2,1.3,5.3c1.3,1.2,1.2,2.3,1.7,5c0.6,2.7,0.6,8.6,2.3,12.7
			s5.7,11.7,5.2,13.2c-0.4,1.6-1,2.7,0.7,4.6c1.7,1.9,2.9,4.6,3,6.2c0.1,1.6,0.4,2.2,2.2,1.6c1.7-0.6,2.6-1.2,3.2-1.9
			c0.6-0.7,1.7-0.6,3.3,0.3c1.6,0.9,4.1,1.7,5.5,0.9c1.5-0.9,2.2-2.2,3.5-2.2c2-1.4,2.8-4.5,3.2-5.3c0.4-0.9,0.1-0.9-0.7-1.7
			c-0.9-0.9-0.4-2.3-0.6-3.7c-0.1-1.4-0.7-3.6-2.5-6.8c-1.7-3.2-2.8-7.1-3.9-8.1c-1.2-1-1.7-3.5-1.9-4.6c-0.1-1.2-1.4-2.2-2.3-3
			c-0.9-0.9-1.7-2.2-2.8-7.2c-1-5-1.7-8.6-1.7-9.5s-0.1-1-1-1.3c-0.9-0.3-1.3-1.7-1-2.4c0.3-0.7-0.3-1.4-0.6-2.3s0-2.4,0.6-3.3
			c0.6-0.9,0.4-3.3-0.1-5.3s-1.2-3.7-3.5-4c-2.3-0.3-2.8-0.9-3.6-2.7c-0.9-1.9-1.7-5.2-2-5.9c-0.3-0.7-0.7-0.9-2.5,0.6
			c-1.7,1.4-2.3,1.9-2.3,4.6c0,1.7,0.3,2.3,0.9,3.3c0.6,1,0.7,1.3,1.2,4c0.4,2.7,2.9,7.1-0.3,9.5c-3.2,2.4-2.8,3-2.6,4.7
			c0.1,1.7-0.9,2.9-1.5,0.4c-0.6-2.4,0-3.9,1.7-5c1.7-1.2,3.3-2.6,2.2-4.2c-1.2-1.6-1.6-5.3-1.7-7.1
			C197.3,242.8,197,242.3,196,243.5L196,243.5z"/>
		<g id="g205">
			<path id="path195" class="st6" d="M170.1,280.3c-0.1,1.2,0.2,2.5,0.3,3.5c0.1,1.2,0.4,3.7-0.4,5.5c-0.9,1.8-0.7,2.8,0,3.3
				c0,0,0.1,0.1,0.1,0.1c1.8-0.6,2-2.6,1.5-3.5c-0.5-1-0.4-2.2,0.2-3.2c0.6-1,0.6-1.6,0.1-2.3c-0.5-0.7-0.5-0.7,0.1-2.7
				C172.5,279.1,171.2,279.1,170.1,280.3L170.1,280.3z"/>
			<path id="path197" class="st6" d="M188.7,308.1c-0.3-1.3-1.5-6.3-1.6-9.5c-0.1-3.2-1.5-5.8-4.2-8.3c-2.1-1.9-2.6-5.1-2.7-7.5
				c-1.6-1-2.3-0.5-2.1,1.3c0.1,1.9,2.1,2.9,1.8,5.7c-0.3,2.8-0.3,2.1,1.1,3.5s1.9,2.7,1.2,3.2c-0.7,0.6-0.8,1.6,0.2,1.9
				c1,0.4,1.1,1.4,0.9,2.4c-0.1,1,0.8,1.2,1.4,1.9c0.6,0.7,0.7,2.4,0.1,3.5c-0.6,1-0.7,2.6,0.4,1.7c1-0.9,1.5-0.1,2.2,1.3
				c0.7,1.2,1.3,0.8,2,0.5C189,309.2,188.8,308.7,188.7,308.1z"/>
			<path id="path199" class="st6" d="M180.2,248.2c-1.1,0.1-1.8,1-1.2,4.3c0.4,2-1.2,1.6-1.7,0.6c-0.6-1-1-3.2-2.2-5
				c-1.2-1.9-0.6,1.3-0.7,3c-0.1,1.7,1,1.7,2,3.2c1,1.4,0.1,2-1,2s-0.6,2.3-0.3,3.9s-0.3,1.9-1.2,0.6c-0.9-1.3-0.3-3.3-0.1-5.8
				c0.1-2.4,0.3-1.9-1.3-2.4c-1.6-0.6-1.3-0.9-0.7-2.3c0.6-1.4,1.2-2.2,0.4-2.9c-0.7-0.7-0.6-1.2,0.6-1.3c1.2-0.1,0.7-1,1.7-1.3
				c1-0.3,1.5,0.1,1.6-1.7c0.1-1.6,0.6-2.5,1.8-2C178.6,243.3,179.5,247.1,180.2,248.2L180.2,248.2z"/>
			<path id="path201" class="st6" d="M206.7,274.1c0.4-3.2,0.1-6.3,1.4-7.5c1.3-1.2,2.9-3.5,2.8,1.4c-0.1,4.9-0.3,4.6-1.3,5.8
				c-1,1.2-1.9,1.4-0.9,3.3c1,1.9,1.2,2,1,4.9c-0.1,2.9-0.1,4,1,5.5c1.2,1.4,1.4,1.6,1.7,3.2c0.3,1.6,1.3,3.7,2.6,4.9
				s2.8,4.5,2.9,6.8c0.1,2.3,2.2,2.9,4.1,4.5c1.9,1.6-0.4,2.7-1.9,2c-1.4-0.7-0.9,0-1.7,1c-0.9,1-1.2,1.2-1.9-0.6
				c-0.7-1.7-3.2-2.9-4.4-3.3c-1.2-0.4-2.2-2.3-3.2-4.2c-0.9-1.6-2.6-2.8-4.2-2.9c0.4,1.2,0.7,2.2,0.5,2.6c-0.4,1.6-1,2.7,0.7,4.6
				c1.7,1.9,2.9,4.6,3,6.2c0.1,1.6,0.4,2.2,2.2,1.6c1.7-0.6,2.6-1.2,3.2-1.9c0.6-0.7,1.7-0.6,3.3,0.3c1.6,0.9,4.1,1.7,5.5,0.9
				c1.5-0.9,2.2-2.2,3.5-2.2c2-1.4,2.8-4.5,3.2-5.3c0.4-0.9,0.1-0.9-0.7-1.7c-0.9-0.9-0.4-2.3-0.6-3.7c-0.1-1.4-0.7-3.6-2.5-6.8
				c-1.7-3.2-2.8-7.1-3.9-8.1c-1.2-1-1.7-3.5-1.9-4.6c-0.1-1.2-1.4-2.2-2.3-3c-0.9-0.9-1.7-2.2-2.8-7.2c-0.8-3.9-1.4-7-1.6-8.6
				c-1,1.6-1.8,2.1-2.1,0.9c-0.4-1.3-1-2-1.6-1.2c-0.6,0.9-0.7-0.7-0.7-1.4c0-0.7-0.1-0.9-0.9-0.9c-0.7,0-0.1-1.2-0.4-3.3
				c-0.3-2.2-0.7-2.4-1,0.1c-0.3,2.6-1.7,4.2-1.2,4.7c0.6,0.6,0.3,1.7-0.3,3.5c-0.6,1.7-0.3,2.7,0.1,3.9c0.4,1.2-0.3,3.3-0.6,5.2
				C204.8,275.4,206.3,277.2,206.7,274.1L206.7,274.1z"/>
			<path id="path203" class="st6" d="M194.8,265.1c0,3,0,4.2,1.3,5.3c1.3,1.2,1.2,2.3,1.7,5c0.6,2.7,0.6,8.6,2.3,12.7
				c0.5,1.2,1.2,2.7,2,4.3c1-0.8,1.8-2,2.1-2.7c0.4-1-0.9-3-1.9-4.7c-1-1.7,0.1-2.3,1.2-4.5c1-2.2-0.1-2.3-1.7-2.9
				c-1.6-0.6-1.6-2-2.5-4.3c-0.9-2.3-0.7-3.3-0.1-4.6c0.6-1.3,0.1-2.3-1-2.6c-1.2-0.3-0.9-1.2-0.4-2.6c0.4-1.4,0.7-1.7-1-1.3
				c-1.3,0.3-1.6,0.6-2,1C194.7,263.7,194.8,264.3,194.8,265.1L194.8,265.1z"/>
		</g>
	</g>
	<g id="g607" transform="matrix(1.3129567,0,0,1.3129567,-857.55727,-110.01291)">
		<g id="g221">
			<path id="path209" class="st9" d="M822.4,284.8l-2.6,29"/>
			<path id="path211" class="st9" d="M830.3,302.6c-1.1,4.9-2.5,10.5-4,15.2"/>
			<path id="path213" class="st9" d="M865,288.6c2,1.9,4.7,2.3,7.7,3.8"/>
			<path id="path215" class="st9" d="M878.3,301.4l-1.5,11.2"/>
			<path id="path217" class="st9" d="M876.8,301.9l-2.6,11.5"/>
			<path id="path219" class="st9" d="M828.6,302.9c-1.2,4.8-2.9,9.1-4.5,13.5"/>
		</g>
		<path id="path223" class="st10" d="M886,329.9c-0.1,0-0.1,0-0.2,0s-0.2,0-0.2,0c-0.1,0-0.2,0-0.3,0c-0.1,0-0.2,0-0.2,0
			c-0.1,0-0.2,0-0.2,0c-0.1,0-0.1,0-0.2,0.1c-0.1,0-0.1,0.1-0.2,0.1c0,0-0.1,0.1-0.1,0.2c0,0-0.1,0.1-0.1,0.1c0,0-0.1,0.1-0.1,0.1
			c0,0-0.1,0.1-0.1,0.1c0,0-0.1,0.1-0.1,0.1c0,0-0.1,0.1-0.1,0.1c0,0-0.1,0.1-0.1,0.1c0,0-0.1,0.1-0.1,0.1c0,0-0.1,0.1-0.1,0.2
			c-0.5,0.4-1.2,0.8-2.1,0.9c-0.5,0.2-1.8,0.2-2.3,0c-1,0-2.1-0.1-2.7-0.5c-0.7-0.4-1.7-0.1-2.3,0.2c-0.5,0.3-0.6,0.7-1.1,0.9
			c-0.3,0.4-1.7,0.4-2.3,0.2c-1.2,0.1-2-0.3-2.8-0.6c-0.6-0.4-1.5-0.7-2.2-0.1c-0.4,0.4-1,0.7-1.7,0.9c-1.2,0-2.5,0.2-3.4-0.3
			c-1-0.1-1.4-0.6-2.3-0.9c-1-0.2-1.5,0.4-2.2,0.6c-0.6,0.5-1.4,0.5-2.4,0.5c-1.1,0-2.4,0.1-3-0.3c-0.9-0.1-1.4-0.6-2.1-0.9
			c-0.6-0.5-1.8,0-2.4,0.3c-0.9,0.1-1.3,0.9-2.5,0.8c-1-0.1-1.6-0.5-2.5-0.8c-0.8-0.4-1.6-1-2.9-0.9c-0.4,0.5-1.3,0.7-2.1,0.8
			c-0.8,0-1.6,0-2.2-0.2c-1.6,0-2.4-1.7-3.5-2.6c-1.9-1.9-3.9-3.8-5.8-5.7c0.3-1,0.4-1.2-0.1-1.9c0.2-1-0.5-1.2-0.2-2.2
			c0.4-0.8-0.8-0.7-1.1-1.1c-0.7-0.1-1-0.6-1.7-0.9c-0.5-0.4-1.1-0.6-1.8-1c-0.6-0.2-1.1-0.6-1.7-0.9c-0.4-0.4-1-0.6-1.4-1
			c-0.5-0.2-1-0.6-1.4-0.9c-0.6-0.2-0.8-0.6-1.4-0.9c-0.4-0.4-1-0.7-1.5-1c-0.7-0.2-1.4-0.7-2.2-0.9c-0.5,0-0.7-1.2,0.3-1.2
			c0.7,0,1.1,0.5,1.7,0.8c0.8,0.3,1.6,0.7,2.6,0.9c0.6,0.3,1.1,0.5,1.8,0.8c0.6,0.4,1.3,0.5,2.1,1c0.7,0.3,1.5,0.7,1.9,1
			c0.6,0.2,0.9,0.6,1.5,0.9c0.2,0.3,0.6,0.4,1,0.7c0.6,0.2,1.1,0.5,1.6,0.8c0.6,0.4,0.9,0.4,1.3,0.8c0.5,0.2,3.7,1.8,3.5,1.6
			c3.1,0.6,4.5,0.8,7.7,1.2c7.6,0.1,15.2,0.2,22.9,0.4c2.8-1.2,5.5-2.3,8.3-3.5c0.8-1.3,1.7-2.7,2.5-4c4.1-0.7,8.2-1.5,12.3-2.2
			c-0.2-0.2,21.5-0.8,22,1.1c0.2,0.8,0.8,2.3,0.1,2.7c-0.5,0.2-20.5-2.6-20.8-0.8c-0.1,0.8,0,5.7,0.1,6.4c0.1,0.8,0.2,1.6,0.3,2.4
			c0.1,0.8,0.2,1.6,0.3,2.4c0.1,0.8,0.2,1.6,0.3,2.4C885.8,328.3,885.9,329.1,886,329.9L886,329.9L886,329.9L886,329.9L886,329.9z"
			/>
		<g id="g261">
			<path id="path225" class="st9" d="M823.9,299c-3.7,4.2-7.4,7.6-11.3,10.8"/>
			<path id="path227" class="st9" d="M844.2,281.9l11.9-10.3"/>
			<path id="path229" class="st9" d="M838.9,292.1c2.4,1.7,5.1,3.2,8.7,4.1"/>
			<path id="path231" class="st9" d="M837.2,276.5c1.5,2.3,3.2,4.6,8.4,6"/>
			<path id="path233" class="st9" d="M833.8,253.1c-1.6,2.1-4.2,4.1-7.5,5.8"/>
			<path id="path235" class="st9" d="M838.1,267.5c1.7,1.6,4.1,2.6,6.5,3.5"/>
			<path id="path237" class="st9" d="M838.1,303.4c1.2,5.9,2.2,10.6,3.6,15.5"/>
			<path id="path239" class="st9" d="M837.1,318.8c6.2-6.4,11.5-13.2,14.9-21"/>
			<path id="path241" class="st9" d="M864.7,274.8c2,2.1,4.1,3.7,7.3,4.5"/>
			<path id="path243" class="st9" d="M873.3,267.2c1.7,3,3.8,5.2,5.7,7.7"/>
			<path id="path245" class="st9" d="M855,257.8c-0.2,3-2,6-3.3,8.6"/>
			<path id="path247" class="st9" d="M859.3,259.3c-2.2,2.5-4.3,5.1-7.4,6.6"/>
			<path id="path249" class="st9" d="M859.6,248.6c-1.5,1-3.6,2.2-5.3,2.8"/>
			<path id="path251" class="st9" d="M882.2,271.4c-1.8,2.2-3.7,4.7-6.7,6.6"/>
			<path id="path253" class="st9" d="M882.6,289.4c-2.3,2.2-4.4,4.8-7.1,6.5"/>
			<path id="path255" class="st9" d="M896.1,302.2c-4.2,3.3-8.5,6.4-13.1,8.7"/>
			<path id="path257" class="st9" d="M885.2,311.4c3.9-2.5,7.4-5.8,10.9-9.2"/>
			<path id="path259" class="st9" d="M884.1,271.8c0.8,2,2.5,4.1,4.3,5.5"/>
		</g>
		<path id="path263" class="st11" d="M881.5,252.1l-0.3,59.3l4.3-0.3l-1.8-59.3L881.5,252.1z"/>
		<g id="g273">
			<path id="path265" class="st12" d="M884.4,328.6c1,0.6,1.6,1.2,2.5,2c1.9,1.7,3.2,1.7,5.9,0c1,0.1,2,0.6,3.1,0.4
				c1,0,1.9-0.1,2.8-0.3c1.2-0.3,1.3-1.7,1.7-2.6c0.5-1.1,1.1-2.2,1.9-3.1c1-0.7,2.1-1.4,2.8-2.4c0.8-0.9,0.7-2.1,0.5-3.3
				c-0.1-1.1-0.2-2-0.2-3.1c-0.3-1.3,0.9-2.4,0.8-3.7c-0.7-0.6-1.8-0.8-2.7-1c-1.6-0.3-3.2-0.6-4.8-0.7c-1.3-0.1-2.6-0.2-3.9-0.3
				c-1.3-0.1-2.6-0.2-3.9-0.2c-1.5,0-3-0.1-4.4,0.1c-1,0.2-2.3,0.1-3.1,0.6c-0.4,1-0.6,2-0.7,3c-0.1,0.9-0.2,1.8-0.2,2.7
				c0.1,1.7-0.2,3.4,0.3,5c0.3,1.3,0.4,2.7,0.7,4C883.5,326.8,883.6,327.9,884.4,328.6L884.4,328.6z"/>
			<g id="g271">
				<path id="path267" class="st9" d="M889.3,299.7l5.9,11"/>
				<path id="path269" class="st9" d="M904,311.3c-1.7-1.8-3.1-4-4.1-6.5"/>
			</g>
		</g>
		<g id="g287">
			<path id="path275" class="st13" d="M903.6,294.2l1.9,1.4l0.1,0.1C905,295,904.4,294.3,903.6,294.2
				C903.6,294.2,903.6,294.2,903.6,294.2L903.6,294.2z"/>
			<path id="path277" class="st13" d="M899.5,294.7c-0.1,0-0.2,0.1-0.2,0.1l-2.7,10.6L899.5,294.7z"/>
			<path id="path279" class="st13" d="M912.5,295.1c-0.7,0.1-1.3,0.3-1.9,0.6l1.1-0.4l1.5-0.2C912.9,295.1,912.7,295.1,912.5,295.1
				L912.5,295.1z"/>
			<path id="path281" class="st13" d="M899.8,304.8l-0.5,0.1c0.2,0,0.4,0,0.6,0.1c0.3,0.1,0.5,0.2,0.7,0.3L899.8,304.8z"/>
			<path id="path283" class="st13" d="M900.9,305.4c0.7,0.4,1.3,1,2.1,1.2L900.9,305.4z"/>
			<path id="path285" class="st13" d="M907.2,305.9l-3.6,0.7C904.8,306.8,906,306.3,907.2,305.9z"/>
		</g>
		<path id="path289" class="st14" d="M899.7,294.1l-3.1,11.4l3.3-0.6l3.4,1.9l5.2-1l2.6,0.4c0.8-3.7,0.6-8,2.7-11l-2.2,0.3l-3.4,1.2
			l-2.7-1l-2.2-1.5L899.7,294.1z"/>
		<path id="path291" class="st15" d="M904.6,295.4c-0.5,1-1.1,2.1-1.2,3.4c0,0-1.5-0.5-2.3-0.6c-0.8-0.1-2.6,0-2.6,0l0,0.1l-0.7,2.7
			c0.1,0,2.1-0.3,3-0.1c0.7,0.1,1.9,0.7,1.9,0.7c-0.3,1.4-0.7,2.9-1,4.3l0.6,0.4l1.4,0.4l0,0l0.6-0.1c0.3-1.5,0.5-3,1.1-4.1
			c0,0,2.1,0.6,3.3,0.5c0.8-0.1,2.5-0.2,2.9-0.3c0.1-0.9,0.2-1.8,0.4-2.7c-0.4,0.1-2.2,0.5-3.2,0.5c-0.9-0.1-2.6-1-2.6-1
			c0.2-0.9,0.7-1.9,1.1-2.8L904.6,295.4z"/>
		<path id="path293" class="st9" d="M897.4,294c-1.4-3.8-3.1-10-3.8-14.9"/>
		<g id="g303">
			<path id="path295" class="st16" d="M898.7,294.9c0,0,3.4-0.8,4.8-0.5c1.5,0.3,2.4,2,3.9,2.2c1.7,0.2,3.3-1.4,5-1.5
				c0.8-0.1,2.5,0.3,2.5,0.3l-1.1,4.2l-1,3.5v3.1c0,0-2.9-0.7-4.4-0.6c-1.8,0.2-3.4,1.3-5.2,1c-1.4-0.2-2-1.3-3.4-1.7
				c-1.1-0.3-3.9,0.4-3.9,0.4L898.7,294.9z"/>
			<g id="g301">
				<path id="path297" class="st17" d="M899.3,294.8l-1.4,0.1l-4.3,15.3l2,0.1L899.3,294.8z"/>
				<path id="path299" class="st17" d="M897.9,294.9c-0.6-0.3-1-1.3-0.7-1.9c0.3-0.7,1.5-0.9,2.2-0.6c0.8,0.2,2,1.1,1.7,1.9
					C900.8,295.3,898.9,295.4,897.9,294.9z"/>
			</g>
		</g>
		<path id="path305" class="st13" d="M913.7,295.2c-2.1,3-1.9,7.1-2.7,10.7c1,0.2,1.8,0.3,1.8,0.3v-3.1l1-3.5l1.2-4.2
			C915,295.4,914.4,295.3,913.7,295.2z"/>
		<g id="g335">
			<path id="path307" class="st9" d="M889.1,282.8c2.1,1.5,4.3,5.4,7.4,8.4"/>
			<path id="path309" class="st9" d="M893.1,277.3c-1.6-4.2-2.9-11-3.1-16.1"/>
			<path id="path311" class="st9" d="M886.8,301.8l3.4,8.8"/>
			<path id="path313" class="st9" d="M890.1,257.1c-2.9-0.7-5.7-2.8-6.1-4.5"/>
			<path id="path315" class="st9" d="M871.2,260c1.9,0.1,8.5-4.8,9.5-7.4"/>
			<path id="path317" class="st9" d="M888,300.5l4.6,9.9"/>
			<path id="path319" class="st9" d="M887.6,303.9l3.4-1.3"/>
			<path id="path321" class="st9" d="M888.2,305.7l3.6-1.5"/>
			<path id="path323" class="st9" d="M889.7,309.4l3.9-1.7"/>
			<path id="path325" class="st9" d="M885.6,289.9l4.7,5.1"/>
			<path id="path327" class="st9" d="M875.6,302.2l-3.3,11.1"/>
			<path id="path329" class="st9" d="M874.7,304.7l3.3,0"/>
			<path id="path331" class="st9" d="M873.8,307.4l3.9,0.1"/>
			<path id="path333" class="st9" d="M873,310.2l4.2,0.8"/>
		</g>
		<g id="g369">
			<path id="path337" class="st18" d="M884.1,250.6c-0.8-0.3-2.8-0.3-3.6,0.3c-0.4,0.3-0.1,1.5,0.5,1.5c1.1,0,2.5,0.1,2.9-0.2
				C884.3,251.9,884.6,250.8,884.1,250.6L884.1,250.6z"/>
			<path id="path339" class="st19" d="M872.1,259.9c1.4,5.8,7.6,4.8,7.3-0.5"/>
			<path id="path341" class="st20" d="M877.7,259.6c1.8,6.7,9.8,5.6,9.5-0.5"/>
			<path id="path343" class="st21" d="M884.5,259.5c1.8,4.9,4.3,3.9,7.4-0.5"/>
			<path id="path345" class="st22" d="M893.6,257.2l-22.5,1.3l0.1,1.5l22.7-1.2L893.6,257.2z"/>
			<path id="path347" class="st23" d="M872.9,279.8c1.4,6.4,7.8,5.4,7.6-0.4"/>
			<path id="path349" class="st24" d="M878.8,279.6c1.8,7.3,10.1,6.3,9.9-0.4"/>
			<path id="path351" class="st25" d="M885.8,279.5c1.8,5.4,4.4,4.4,7.7-0.4"/>
			<path id="path353" class="st26" d="M895.3,277.2l-23.4,1l0,1.7l23.6-0.9L895.3,277.2z"/>
			<path id="path355" class="st27" d="M872.3,297.7c1.5,6.5,8.1,5.4,7.8-0.5"/>
			<path id="path357" class="st28" d="M878.3,297.4c1.6,9.7,10.5,6.2,10.1-0.6"/>
			<path id="path359" class="st29" d="M885.5,297.3c1.9,5.5,4.6,4.4,7.9-0.6"/>
			<path id="path361" class="st30" d="M895.3,294.7l-24,1.4l0.1,1.7l24.2-1.3L895.3,294.7z"/>
			<g id="g367">
				<path id="path363" class="st31" d="M887.2,268.8l-8.9,0.3l0,2.2l9,0L887.2,268.8z"/>
				<path id="path365" class="st31" d="M887.3,287.6l-8.9,0.3l0,2.2l9,0L887.3,287.6z"/>
			</g>
		</g>
		<g id="g389">
			<path id="path371" class="st9" d="M865,297.9l6.6,15.8"/>
			<path id="path373" class="st9" d="M831.8,302.9c-0.7,5-1.9,11.4-3.1,16.1"/>
			<path id="path375" class="st32" d="M905.4,312.5c-3.7-0.6-7.5-1.2-11.3-1.4c-3-0.1-6,0-8.9,0.3c-4.3,0.4-8.8,0.6-12.9,1.9
				c-0.6,0.2-1.2,0.4-1.6,0.8c-1.2,1.1-1.3,3-2.3,4.4c-1,1.3-4.6,3.4-5.9,4.3c-9.6,0.2-20.3,0.1-32.3-1.7l-1.7-1.9l-0.7-0.7l1.9,0.7
				l4.3,0.1l10.4-0.4c0,0,8.8,0,13.2-0.2c2.5-0.1,5-0.3,7.4-0.6c0.5-0.1,1.1,0,1.6-0.3c0.7-0.5,1-1.5,1.5-2.2c0.5-0.7,0.8-1.5,1.5-2
				c1.9-1.4,4.3-1.3,6.3-1.7c2.4-0.5,4.7-0.6,7.2-0.9c2.8-0.4,5.7-0.6,8.6-0.8c1.8-0.1,3.7-0.2,5.5-0.1c2.8,0.2,5.9,0,8.3,1.4
				c0.4,0.3,1.3,0.7,1,1.2C906.3,313,905.8,312.5,905.4,312.5L905.4,312.5z"/>
			<g id="g387">
				<path id="path377" class="st9" d="M861.7,248.6c1.4,1.1,4,2,6.6,2.4"/>
				<path id="path379" class="st9" d="M858.7,288.7c-3,2.2-6.2,3.7-9.5,4.7"/>
				<path id="path381" class="st9" d="M867.3,316.9l-5.2-13.7"/>
				<path id="path383" class="st9" d="M863.1,298.7l6,15.7"/>
				<path id="path385" class="st9" d="M862.3,302.7l4-1.4"/>
			</g>
		</g>
		<path id="path391" class="st33" d="M859.5,246.5l-1.2,72.9l4.3-0.3l-0.8-72.7L859.5,246.5z"/>
		<path id="path393" class="st9" d="M864.7,257.8c1.7,3.2,4.4,5.8,8.3,7.6"/>
		<g id="g411">
			<path id="path395" class="st23" d="M850.6,253.3c1.4,6.4,7.8,5.4,7.6-0.4"/>
			<path id="path397" class="st24" d="M856.5,253.1c1.8,7.3,10.1,6.3,9.9-0.4"/>
			<path id="path399" class="st25" d="M863.5,253.1c1.8,5.4,5,5.9,7.7-0.4"/>
			<path id="path401" class="st26" d="M873.1,250.7l-23.4,1l0,1.7l23.6-0.9L873.1,250.7z"/>
			<path id="path403" class="st23" d="M850.6,268c1.4,6.4,7.8,5.4,7.6-0.4"/>
			<path id="path405" class="st24" d="M856.5,267.8c1.8,7.3,10.1,6.3,9.9-0.4"/>
			<path id="path407" class="st25" d="M863.5,267.8c1.8,5.4,7.2,4.5,7.7-0.4"/>
			<path id="path409" class="st26" d="M873.1,265.4l-23.4,1l0,1.7l23.6-0.9L873.1,265.4z"/>
		</g>
		<path id="path413" class="st9" d="M857.6,276.2c-2.1,1.4-4,3.1-6.8,3.9"/>
		<g id="g423">
			<path id="path415" class="st23" d="M849.9,281.8c1.4,6.4,7.8,5.4,7.6-0.4"/>
			<path id="path417" class="st24" d="M855.8,281.6c1.8,7.3,10.1,6.3,9.9-0.4"/>
			<path id="path419" class="st25" d="M862.8,281.6c1.8,5.4,6.5,3.7,7.7-0.4"/>
			<path id="path421" class="st26" d="M872.4,279.2l-23.4,1l0,1.7l23.6-0.9L872.4,279.2z"/>
		</g>
		<g id="g431">
			<path id="path425" class="st9" d="M852.9,298.5c-0.6,7.2-3.5,13.7-5.4,20.5"/>
			<path id="path427" class="st9" d="M855.5,298.5c-0.6,7-2.8,13.6-4.6,20.2"/>
			<path id="path429" class="st9" d="M857.6,297.9c-0.8,7.8-1.8,14.3-3.5,20.7"/>
		</g>
		<g id="g447">
			<path id="path433" class="st23" d="M850.2,295c1.4,6.4,7.8,5.4,7.6-0.4"/>
			<path id="path435" class="st24" d="M856.1,294.8c1.8,7.3,10.1,6.3,9.9-0.4"/>
			<path id="path437" class="st25" d="M863.1,294.8c1.8,5.4,6.5,4.3,7.7-0.4"/>
			<path id="path439" class="st26" d="M872.7,292.4l-23.4,1l0,1.7l23.6-0.9L872.7,292.4z"/>
			<path id="path441" class="st34" d="M865.2,260.6l-8.4,0.3l0,2.2l8.5,0L865.2,260.6z"/>
			<path id="path443" class="st35" d="M864.9,274.8l-7.5,0.2l0,2.1l7.5,0L864.9,274.8z"/>
			<path id="path445" class="st36" d="M865.3,288.6l-8.1,0.3l0,2.2l8.2,0L865.3,288.6z"/>
		</g>
		<g id="g469">
			<path id="path449" class="st9" d="M852.7,301.1l4.4,0.9"/>
			<path id="path451" class="st9" d="M851.7,305.2l5,0.1"/>
			<path id="path453" class="st9" d="M850.9,308.1l5.2,1.5"/>
			<path id="path455" class="st9" d="M849.5,312.7l6.1-0.3"/>
			<path id="path457" class="st9" d="M848.4,316.5l6.5-0.2"/>
			<path id="path459" class="st9" d="M846.9,298.3c-0.7,7.4,4.1,14.4,6.4,20.5"/>
			<path id="path461" class="st9" d="M866.6,315l4.1-1.2"/>
			<path id="path463" class="st9" d="M865.6,312.7l4.7-2"/>
			<path id="path465" class="st9" d="M864.1,309.2l4.8-1.4"/>
			<path id="path467" class="st9" d="M863.1,305.9l4.7-1.2"/>
		</g>
		<path id="path471" d="M837.7,331.9c-0.6,0-1.1-0.2-1.6-0.3c-0.5-0.2-1.1-0.3-1.6-0.6c-0.5-0.2-1-0.6-1.4-0.9
			c-0.4-0.3-0.9-0.7-1.3-1.1c-0.5-0.5-1-0.9-1.5-1.4c-0.5-0.5-1-1-1.4-1.5c-0.5-0.5-1-0.9-1.4-1.5c-0.4-0.4-0.4-1.1-0.8-1.6
			c-0.6-0.1-1.4-0.2-1.5-1c-0.2-0.5-0.3-1-0.9-1c-0.2,0-0.3,0.4-0.2,0.1c-0.3-0.2-0.2,0.5-0.3,0.2c-0.2,0.3-0.4,0.9-0.4,0.8
			c-0.3,0.5-0.2,1.1,0.4,1.2c0.6,0.1,0.7,0.8,1.3,1.1c0.4,0.4,1,1,1.4,1.4c0.5,0.6,0.8,0.9,1.2,1.5c0.2,0.5,0.8,0.8,1.1,1.1
			c0.3,0.5,0.6,0.9,1,1.3c0.4,0.4,0.9,0.9,1.4,1.1c0.4,0.3,0.9,0.5,1.3,0.8c0.5,0.2,1,0.6,1.5,0.7c0.6,0.3,1.3,0.2,1.9,0.4
			c0.6,0,1.3,0,1.8-0.4C838.5,331.9,838,332,837.7,331.9L837.7,331.9z"/>
		<path id="path473" d="M871.9,315.3c-0.8,1.8-2,4.4-3.5,5.9c5,1,9.1-0.4,13.6-1.2c-0.5-1.9-0.5-4.1-0.3-6.3
			C878,314.1,875.5,314.9,871.9,315.3z"/>
		<path id="path475" class="st37" d="M872.3,315.8c-0.6,1.6-1.1,3.3-2.4,4.7c4.1,0.9,7.5-0.4,11.2-1.1c-0.7-1.5-0.5-3.1-0.2-4.8
			C877.9,315,875.2,315.5,872.3,315.8L872.3,315.8z"/>
		<path id="path477" d="M829,323.1l14.6,1.1c11.7,0.4,25.1-0.2,36.7-1.5c0.5-0.1,1.3-0.2,1.4,0.3c0.2,0.6-0.6,1.2-1.1,1.3
			c-13.3,1.7-26.8,1.1-40.2,1l-7.9-0.8L829,323.1z"/>
		<path id="path479" class="st9" d="M834.3,290.4c-3.7,2.9-7.5,5.8-11.7,7.5"/>
		<path id="path481" class="st9" d="M834.9,276.7c-3.4,2.5-6.8,5.5-10.5,7"/>
		<path id="path483" class="st38" d="M833.6,251.6l-0.1,68.1l3.7-0.3l-2.2-68.3L833.6,251.6z"/>
		<path id="path485" class="st9" d="M835.1,251.2c3,3.4,5.5,5.2,8,7.4"/>
		<path id="path487" class="st39" d="M836,249.3c-0.8-0.4-2.8-0.5-3.6,0.5c-0.4,0.5-0.1,2.2,0.5,2.2c1.1,0,2.5,0.1,2.9-0.4
			C836.3,251.1,836.6,249.5,836,249.3z"/>
		<path id="path489" class="st40" d="M833.9,328.5c0.1-0.6,0.6-0.7,1.1-0.8c0.6,0,1.3-0.1,1.7,0.2c0.5,0.1,0.7,0.4,1.1,0.5
			c0.3,0.3,0.7,0.5,1,0.7c1.2,0.5,0.6-0.9,1.3-1c0.6,0.1,1.2-0.2,1.7,0c0.4,0.1,0.6,0.4,0.9,0.7c0.3,0.2,0.5,0.4,0.7,0.7
			c0.1,0.4,1.4,1,1.5,0.2c0.3-0.6,0.1-1.6,1.1-1.5c1-0.1,1.8,0.2,2.8,0.3c0.5,0.2,0.9,0.3,1.3,0.7c0.4,0.2,0.3,0.6,0.7,0.6
			c0.9,0.7,0.7-0.6,1-1c0.2-0.4,0.9-0.3,1.2-0.5c0.6-0.2,1.2-0.4,2-0.3c0.3,0.2,0.9,0.5,1.3,0.7c0.3,0.3,0.7,0.6,0.8,1.1
			c0,0.5,0.4,0.8,0.8,0.5c0.2-0.5,0.6-0.5,1-0.8c0.4-0.1,0.7-0.3,0.9-0.6c0.2-0.1,0.5-0.6,0.7-0.8c0.4-0.3,1.2-0.2,1.9-0.3
			c0.7,0.2,1.3,0.3,1.7,0.6c0.2,0.3,0.4,0.6,0.8,0.7c0.2,0.4,0.7,0.1,1.1-0.1c0.3-0.2,0.7-0.4,1.1-0.6c0.3-0.3,0.8-0.5,1.4-0.5
			c0.8-0.1,1.2,0.3,1.7,0.4c0.6,0.2,1.2,0.3,1.5,0.6c0.4,0.3,0.9,0.5,1.3,0.2c0.5,0,0.1-1,0.3-1.3c0.6-0.5,2-0.4,2.8-0.1
			c0.6,0,1.4-0.1,1.8,0.2c0.4,0.1,0.5,0.5,0.7,0.9c0.2,0.4,1.3,0.4,1.7,0.1c0.4,0-0.1-0.5-0.2-0.7c-0.2-0.2-0.5-0.5-0.6-0.8
			c0.6-0.3,0.8,0.2,1.3,0.3c0.3,0.2,0.6,0.3,0.9,0.6c0.4,0.2,0.8,0.4,1.5,0.3c0.6,0.2,0.4,1.1-0.4,0.9c-0.5,0.2-1.4,0-2.1,0.1
			c-1-0.1-2.1-0.1-3.2-0.1c-0.5,0.2-1.4,0.1-2,0.3c-0.7,0-1.2,0.1-1.9,0.1c-0.7,0.1-1.4,0.1-2.2,0.1c-0.7,0.1-1.3,0.2-2,0.2
			c-0.6,0-1.1,0.1-1.8,0.1c-0.9,0.2-2.1,0-3.1,0.1c-0.6,0.1-1.2,0.1-1.8,0.2c-0.6,0-1.2,0.1-1.9,0.2c-0.7,0-1.2,0.1-2,0.1
			c-1.1,0.2-2.3,0-3.4,0.1c-0.5-0.1-1.3-0.1-1.9-0.2c-0.6,0-1-0.1-1.7-0.1c-0.5-0.2-1.3,0-1.8-0.2c-0.9,0.1-1.6-0.1-2.6-0.1h-5
			c-0.4-0.2-1.2,0-1.7-0.1c-0.9,0-2,0-2.8,0c-0.7-0.1-1.6,0-2.2-0.3C835.1,329.7,833.8,329.4,833.9,328.5L833.9,328.5z"/>
		<g id="g499">
			<path id="path491" class="st41" d="M825.7,260c1.2,4.4,6.8,3.8,6.6-0.3"/>
			<path id="path493" class="st42" d="M830.8,259.8c1.6,5.1,8.9,4.3,8.6-0.3"/>
			<path id="path495" class="st43" d="M837,259.8c1.6,3.7,4.4,4.1,6.7-0.3"/>
			<path id="path497" class="st44" d="M845.3,258.2l-20.5,0.7l0,1.2l20.7-0.6L845.3,258.2z"/>
		</g>
		<path id="path501" class="st9" d="M831.2,268.1c-1.8,1.6-5.2,3.6-6.7,3.4"/>
		<path id="path503" class="st9" d="M827.6,262.4c-4.4,16.8-10.2,34.7-15.6,49"/>
		<g id="g523">
			<path id="path505" class="st39" d="M825.4,272.7c1.2,4.7,7,4,6.8-0.3"/>
			<path id="path507" class="st45" d="M830.3,272.6c1.6,6.4,9.1,5.4,8.9-0.4"/>
			<path id="path509" class="st46" d="M837.1,272.6c1.8,4,5,4.3,7.7-0.3"/>
			<path id="path511" class="st47" d="M845.6,270.3l-21,0.9l0,1.5l21.2-0.8L845.6,270.3z"/>
			<path id="path513" class="st48" d="M824.3,284.9c1.3,5.8,7.6,4.9,7.4-0.3"/>
			<path id="path515" class="st49" d="M830.1,284.8c1.9,8.6,10.5,7.3,10.3-0.5"/>
			<path id="path517" class="st50" d="M836.9,284.7c1.7,4.9,4.9,5.3,7.5-0.4"/>
			<path id="path519" class="st51" d="M846.2,282.5l-23.9,0.9l0,1.5l24.1-0.8L846.2,282.5z"/>
			<path id="path521" class="st52" d="M823.9,299c1.4,6.3,8.2,5.4,8-0.4"/>
		</g>
		<path id="path525" class="st9" d="M841.6,302.3c1.4,6,3.2,11.4,4.9,16.5"/>
		<path id="path527" class="st9" d="M839.8,302.1c0.8,5.8,2.4,11.3,4,16.7"/>
		<g id="g541">
			<path id="path529" class="st53" d="M830.1,298.8c1.7,8.3,10.5,7.6,10.4-0.4"/>
			<path id="path531" class="st54" d="M837.5,298.8c1.9,5.3,5.3,5.8,8.1-0.4"/>
			<path id="path533" class="st55" d="M847.6,296.2l-26.7,1.1l0,1.8l26.9-0.9L847.6,296.2z"/>
			<path id="path535" class="st56" d="M838.9,266.2l-7.7,0.2l0,1.7l7.7,0L838.9,266.2z"/>
			<path id="path537" class="st56" d="M838.9,278.6l-7.7,0.2l0,1.7l7.7,0L838.9,278.6z"/>
			<path id="path539" class="st57" d="M839.4,292.1l-8.1,0.2l0,1.7l8.2,0L839.4,292.1z"/>
		</g>
		<g id="g571">
			<g id="g559">
				<path id="path543" class="st9" d="M842.4,304L838,305"/>
				<path id="path545" class="st9" d="M843.1,307.4l-4.4,0.9"/>
				<path id="path547" class="st9" d="M844,311l-4.4-0.2"/>
				<path id="path549" class="st9" d="M845.3,314.5l-4.6,0.7"/>
				<path id="path551" class="st9" d="M824.9,313.8l4.6,0.9"/>
				<path id="path553" class="st9" d="M826.2,310l4.1,0.9"/>
				<path id="path555" class="st9" d="M827.3,307.1l3.8,1"/>
				<path id="path557" class="st9" d="M828,304.5l3.5,0.7"/>
			</g>
			<g id="g569">
				<path id="path561" class="st58" d="M882.6,319.8c7.7-0.3,16.8-1.2,23,1.2"/>
				<path id="path563" class="st58" d="M883.1,322.4c7.1-1,15.3-1.6,21.3,0.7"/>
				<path id="path565" class="st58" d="M883.8,327.4c5.1-1.1,11.9-1.4,16.7-0.2"/>
				<path id="path567" class="st58" d="M884.4,328.6c5.1,1.1,11.1,1.4,15.9,0.2"/>
			</g>
		</g>
		<path id="path573" d="M810,310.9l16.5,10l0.4-0.4l-5.2-3.6C817.9,314.5,814.2,312.2,810,310.9z"/>
		<g id="g605">
			<g id="g601">
				<path id="path575" class="st9" d="M889.2,319l-0.1-5.5"/>
				<path id="path577" class="st9" d="M890.9,313.6l0,5.6"/>
				<path id="path579" class="st9" d="M894,319.3v-5.9"/>
				<path id="path581" class="st9" d="M897.5,313.9l0,5.7"/>
				<path id="path583" class="st9" d="M899.5,313.8l0.1,5.8"/>
				<path id="path585" class="st9" d="M902.3,314.4v5.4"/>
				<path id="path587" class="st9" d="M903.7,314.3l-0.1,6"/>
				<path id="path589" class="st9" d="M889.9,321.4l-0.1,5.2"/>
				<path id="path591" class="st9" d="M888.2,321.7v4.9"/>
				<path id="path593" class="st9" d="M892.7,321.5l-0.2,4.9"/>
				<path id="path595" class="st9" d="M894.4,321.5l-0.1,4.9"/>
				<path id="path597" class="st9" d="M896.9,321.4l-0.3,4.8"/>
				<path id="path599" class="st9" d="M899.3,322l-0.9,4.4"/>
			</g>
			<path id="path603" class="st58" d="M882.7,313.9c7.6-0.9,15.1,0.2,22.7,0.9"/>
		</g>
	</g>
	<path id="path609" class="st8" d="M355.5,213c0.1-25.6-1.4-50.4-0.7-72.1c-33.1-14.7-76.6-17.7-98.8-17.7c-22.2,0-65.7,3-98.8,17.7
		c0.7,21.7-0.8,46.6-0.7,72.1H355.5z"/>
	<g id="g1387" transform="matrix(0.48583726,0,0,0.48583726,180.7078,93.349805)">
		<path id="path1116" class="st59" d="M142.7,160.9c0,0,7.4,10.9,9.3,16.8c1,2.9,1.3,6,1.1,9.1c-0.4,5.5-2.5,10.8-4.2,16.1
			c-1.2,3.7-3.8,6.4-2.4,10c0.7,1.7,1.4,3.3,3.2,3c1.1-0.2,1.7-1.6,2.5-2.3c0.6-0.5,1.2-1.1,2-1.4c1.1-0.4,2.6,0.2,3.4-0.6
			c0.7-0.7,1.2-2.1,0.6-2.8c-0.5-0.7-1.7,0-2.5,0c-1.2,0-2.6,0.9-3.7,0.3c-1.1-0.6-1.7-3.4-1.7-3.4s2.2-6.1,3.4-9.1
			c1-2.5,2.6-4.7,3.1-7.4c0.2-0.8-0.1-1.7,0-2.5c0.1-1.3-0.3-3,0.6-4c0.6-0.6,2.2,0.2,2.5-0.6c1.2-3.1-4.4-5.1-5.7-8.2
			c-0.5-1.2-0.2-2.5-0.6-3.7c-0.9-2.6-4-7.1-4-7.1L142.7,160.9z"/>
		<path id="path1140" class="st60" d="M165.6,169.4c0,0,6.5,8.1,7.2,13.1c0.1,1.1-0.7,2.1-0.8,3.2c0,1.7,1,3.4,0.9,5.1
			c-0.3,5.6-3.2,10.7-4.5,16.1c-1.1,4.6-3,13.8-3,13.8l4.2-0.4l0.8-7c0,0,2.2-8,3.2-11.9c0.7-2.8,1.1-5.6,2.1-8.3
			c0.6-1.8,2-3.3,2.5-5.1c0.6-2.4,1.3-5.2,0.2-7.4c-0.4-0.8-1.5-0.9-2.1-1.5c-1.4-1.5-2.5-3.3-3.4-5.1c-0.9-1.9-2.1-5.9-2.1-5.9
			C169.9,168.4,165.6,169.4,165.6,169.4L165.6,169.4z"/>
		<path id="path1344" class="st14" d="M134.8,154.5l4.7,3.7l8.1,4.9l3.7,0.2l4.2,1.5l5.2-0.2l3.9,4l1.1,0.7l4.3-0.6l1.6-1.8
			l8.2-12.5l-2-20.7l-39.2,2.5L134.8,154.5z"/>
		<path id="path1171" class="st14" d="M177,119.7c5.3,4.3,10.4,8.8,14.6,14.2c3.2,3.8,5.1,8.9,9.8,11.3c6.6,7,34.8,15.2,34.9,17.4
			c-6.5-2.6-9.3,6.2-15.6,4.8c-5.9,1.7-10.7-2.1-15.8-4.3c-7.6-0.3-15.6,0.1-22.3,4c-3.7,2-8.1-1.1-11-0.1l-0.3,0.6l-0.4,0.4
			 M134.8,154.5c-4.5-2.2-7.8-6.5-12-9c-3.2-4.6-7.4-9.2-7.2-15.2c-0.5-6.2-2.1-14.8,0.8-20.7c-2.1-4.6-5.1-5.9-7.4-10.5
			c-1.7-6.3-8.1-9.9-4.3-14.8c4.3-3.8,7.3-8.3,12.8-10.3c4.6-1.1,9.2-0.6,13.6,1c5.7,0.7,8.8,5.5,11.8,9.7c3.6,5.6,6.1,12,7.1,18.7
			c2.6,5.5,9.6,6.6,14.7,8.9c4.4,2.1,8.8,3.9,12.4,7.2"/>
		<path id="path1332" d="M207.9,156.3c-2.2-0.3-7.5,1.9-6.1-1.4c-5.4-0.4-11.2,0.8-16.4-1.1c-5.4-2.7-11.3-4.3-17.1-5.9
			c-5.7-0.3-12.4,1-16.8-3.7c-4.5-2.6-11.2-0.7-15.3-4.6c-4.2-3.6-6.7-8.5-6.6-14c-0.8-5.4-2.8-12.7,3.2-15.9
			c4-1.2,7.7-0.2,10.1-4.1c5-0.8,9.7,1,14,3.5c5.1,2.5,10.7,4.1,15.7,6.9c4.7,3.1,8.8,7.2,13.2,10.8c3.5,4,7.6,7.7,9.8,12.6
			c2.7,5.3,8.2,8.1,13,11.1c2.8,0.7,9.6,3.9,3.2,4.7C210.5,155.5,209.3,156.2,207.9,156.3z"/>
		<path id="path1327" class="st61" d="M152.4,138.5c-2.8-0.4-5.6-0.9-7.9-2.7c-1.8-1.1-6.2-3.7-3.4-5.7c2.4-0.3,5.1,0.9,7.3-0.7
			c3.2-0.7,6.6-0.7,9.6-2.3c2.8-1.5,6-0.5,8.9-1.4c2.1-1.1,1.8-5.4,5.1-4.7c3-0.8,2.1,5-0.6,3.2c-1.7,2.3,3,3.1,4.2,4.6
			c2.5,2.8-3,3.5-3.5,5.6c-3.5,1-6-3.3-9.4-2.1c-0.6,1.2,0.1,3.5-2.4,3c-2.9-1.8-5.4,0.2-8.2,0.6C153,136.3,151.2,138.6,152.4,138.5
			L152.4,138.5z"/>
		<path id="path1258" class="st61" d="M212.4,159.2c-1.6-0.9-3.7-0.1-5.5,0c-1.2,0-2.4,0.1-3.5-0.4c-1.8,0-5.2-2-5.7,0.6
			c0.1,1.1,3,1.6,0.6,1.9c-2.5,0.4-4.7-0.8-6.9-1.6c-0.9-0.9-2.9-1.9-2.4,0.1c0.8,1.8-1.2,2.6-2.7,2.6c-2.2-0.2-4.6-0.8-6.2-2.3
			c-1.1,1.4,1.6,3.4,3.3,3.5c1.6,1.4-2.5,0.8-3.4,0.6c-1.4-0.2-2.9-0.4-4.1,0.4c-1.9,0.4-2,2.3,0.3,2.1c2.1,0.7,4.5,1.3,6.7,0.2
			c2.3-1.3,4.8-2.3,7.4-2.8c2.1-0.5,4.1-0.8,6.3-1c2.8-0.3,5.6-0.3,8.4-0.3c2.2,1.2,4.4,0.2,6.3-0.9c1.2-0.4,4.8-1.7,2.2-2.8
			C213,159.5,212.7,159,212.4,159.2L212.4,159.2z"/>
		<path id="path1255" d="M204.9,163.1c1.1,0,2.2,0,3.1-0.5c1.1-0.6,2.2-0.8,3.3-1.2c1.4,0,2.1-1.9,0.6-2.3c-0.8-0.5-1.7-0.9-2.6-1.3
			c-0.9-0.7-2.1-1-2.9-1.7c0.7-0.8,1.2-1.7,1.9-2.5c1-0.4,2.2-0.2,3.3-0.5c0.8-0.3,1.6-0.1,2.5-0.2c1.1,0.6,2.3,0.9,3.4,1.6
			c1.1,0.6,2.3,1.2,3.5,1.5c1,0.3,2,0.7,3,1.1c1.1,0.6,2.4,0.8,3.6,1.2c1.2,0.2,1.7,1.6,3.1,1.4c1.4,0.2,2.6,0.5,3.6,1.5
			c0.8,0.3,2.1,1,2.2,1.7c-1.1,0.1-2.1-0.9-3.2-0.6c-0.9,0.2-1.5,1.1-2.6,0.9c-0.5,1.4-2.2,1.2-3.1,2.3c-1.2,0.9-2.4,1.7-3.8,2.2
			c-1.1,0.4-2.2,0.4-3.3-0.1c-1.2-0.3-2.5,0-3.8-0.2c-1.3,0.4-2.6,0.1-3.8-0.4c-1.1-0.3-1.9-1.1-2.9-1.7c-1.1-0.5-3.2-1-4.3-1.5
			c-0.6-0.3-0.5-0.5-1.2-0.6L204.9,163.1z"/>
		<path id="path1245" d="M120.7,73.4c-1.2,0-2.3,0-3.4,0.5c-1.9,0.4-3.6,1.6-4.8,3.1c-1.6,1.9-3.4,3.5-5.4,4.8
			c-1,0.7-1.8,1.6-2.4,2.6c1.2,0.8,3,1,3.8-0.4c1.2-1.5,2.9-2.8,4.7-3.5c1.6-0.3,3.3,0.3,4.9,0.5c1.3,0.7,2.7,1.3,4.2,1.5
			c0.8,0.3,2.1,0.4,3.2,0.7c1.5,0.6,3.1,0.8,4.7,1.3c1.8,0.4,3.6,0.2,5.3,0c0.4,0,0.8-0.1,1.2-0.1c-0.3,0.6-0.5,1.1-0.4,1.4
			c0,1.1,0.5,2,1,3c0.6,0.9,1.1,1.9,1.7,2.8c0.5,1.1,1,2.1,1.4,3.2c0.5,0.8,0.8,1.7,1.2,2.6c0.2,1,0.7,2,1.4,2.8
			c0.7,0.9,1.6,1.8,2.2,2.8c0.6,0.9,1,1.8,1.5,2.7c0.8,0.7,1.6,1.6,2.7,1.5c1.1,0.1,2.2-0.3,3.2-0.4c-0.1,0-0.2-0.1-0.4-0.1
			c-1-0.5-1.5-1.6-2.1-2.5c-0.2-1.1-0.3-2.2-0.5-3.2c-0.1-1-0.4-2-0.8-3c-0.3-0.9-0.6-1.7-0.9-2.6c-0.4-0.9-0.8-1.8-1.1-2.8
			c-0.4-1-0.7-2-1.2-2.9c-0.5-0.9-0.9-1.9-1.5-2.9c-0.6-0.8-1-1.9-1.6-2.7c-0.3-0.5-0.8-0.8-1.3-0.9c0.2-0.5,0-1.2-0.6-1.7
			c-0.8-0.9-1.8-1.7-2.4-2.9c-1.2-1.5-3.2-2-4.9-2.8c-2-0.9-4.1-1.3-6.3-1.8c-1.7-0.4-3.4-0.6-5.1-0.6
			C121.5,73.4,121.1,73.4,120.7,73.4z"/>
		<path id="path1239" class="st61" d="M140.5,101.3c-0.1-1.5-2.1-0.9-2.8-0.1c-1,1-1.6,2.4-2.8,3.2c-1.8,1.3-4.2,1.5-6,2.8
			c-1,1.1-1.8,2.4-3.2,3.1c-1.4,0.8-3,1.6-3.7,3.1c-0.3,1.1-1.1,2.6,0.1,3.5c1.5,0.6,0.1,1.9,0.1,2.9c0.7,1,2.4,1.4,3.4,0.7
			c1.4-0.8,2.9-1.6,3.8-3c1.3-1.6,2.8-3.2,4.7-4.1c1.3-0.3,2.2-1.2,3.1-2.1c0.9-0.7,0.1-2.2,1.5-2.4c1.3-0.5,1.9-1.7,2.7-2.7
			c0.7-1.2-0.6-2.2-0.4-3.5C141.1,102.2,141,101.6,140.5,101.3L140.5,101.3z"/>
		<path id="path1157" class="st60" d="M162.2,221.8c-2.5,0-5.1,0-7.6,0c-1.3-0.5-2.1-2.6-3.8-1.8c-1.4,0.5-2.8,1.2-4.1,1.9
			c-1.3,0.7-2.4,1.6-3.2,2.8c-0.2,0.8-2.5,1.7-0.5,1.7c1.7,0.1,2.8-1.6,4.4-1.9c1.3-0.5,2.8-0.2,4.1-0.3c1.1,0.3,2.4,0.3,3.6,0.3
			c1.4-0.1,2.6,0.1,4,0.1c1.9,0.2-0.7,1.3-1.3,1.6c-1.5,0.7-3.2,0.9-4.8,1.2c-1.6,0-3.2-0.1-4.7,0.7c-1.5,0.7-2.9,1.4-4.3,2.3
			c-0.7,0.4-2.6,1.4-0.8,1.4c1.4,0.2,2.7-0.2,4-0.6c2.3-0.9,4.7-1.4,7.1-1.8c1.6-0.4,3-1,4.6-1.3c1,0,3.6-0.5,2.7,1.2
			c-1,1.2-2.4,2-3.8,2.6c-1.2,0.7-2.3,1.8-3.8,1.7c-1.1-0.4-3.5,0.5-1.8,1.6c0.9,1.5,2.7,0.5,3.8-0.1c1.3-0.7,2.6-1.2,4-1.7
			c1.6-0.6,3.2-1.2,4.7-1.9c1.2-0.8,2.8-1.1,3.9-1.9c1.4-0.8,3-1.4,3.6-3c0.4-1.3,1.4-2.1,2.6-2.5c1.4-0.4,2.9-0.1,4.3-0.4
			c1.6,0,1.1-2.9-0.3-2.9c-1.3-0.8-2.4-1.8-3.7-2.5c-1.5-0.6-3.2-1-4.8-0.8c-1.4,0.1-2.5,1-3.2,2.1c-0.9,1-1.1,2.8-2.8,2.4
			C163.6,222.4,162.9,222.1,162.2,221.8L162.2,221.8z"/>
		<path id="path1136" class="st60" d="M125,231.3c0,0,1.4-5.3,3.3-7.2c3.8-3.8,14.7-6.5,14.7-6.5c-4.6,1.8-10.2,0.5-14.7,1.8
			c-3.7,1.2-10.2,6-10.2,6s2.4-5.1,4.2-7.2c5.4-5.9,14-6.6,20.5-5.6l7.4,1.1c0,0,1.3,0.8,0.7,1.9c-1.2,2.3-4.6,3.7-7,4.8
			C137.3,223.7,129.1,226.3,125,231.3z"/>
		<path id="path1134" class="st59" d="M147.4,212.6c-5.9,4-19.6,11.2-19.1,11.6c0,0,11.7-2.7,17-5.3c1.9-0.9,4.4-1.5,5.1-3.5
			c0.3-1-0.2-2.4-1.1-3C148.8,212.1,147.9,212.2,147.4,212.6z"/>
		<path id="path1138" class="st61" d="M175.7,181.5c-1.4-0.1-1.6,2.5-1.7,4c0,1,0,2.8,0.9,2.8c1.3,0.1,1.6-2.1,1.7-3.4
			C176.7,183.8,176.9,181.6,175.7,181.5L175.7,181.5z"/>
		<path id="path1142" class="st59" d="M169.6,220.4c0-1.2-1.4-0.5-2.1-0.3c-1.4,0.3-2.7,1.1-3.9,1.9c-1,0.6-2,1.2-3,1.7
			c-2,1-3.8,2.3-5.8,3.2c-0.8,0.4-1.7,0.8-2.6,1c-0.7,0.1-0.5,0.6,0.2,0.6c1.4,0.3,2.8,0.1,4.1-0.3c1.5-0.5,3.1-0.8,4.5-1.4
			c0.8-0.7,2.3-0.9,3.2-1.4c0.7-0.5,2.6-0.8,3.4-1.1c1.3-0.7,0.8-1.6,2.3-1.6c0.9,0,1.1-1.4,0.1-1.6
			C169.8,220.7,169.7,220.6,169.6,220.4L169.6,220.4z"/>
		<path id="path1149" class="st59" d="M156.2,232.9c1.1-0.3,2.2-0.2,3.2-0.6c1.3-0.3,2.5-0.7,3.8-1.2c0.6-0.3,1.2-0.6,1.8-0.9
			c1-0.7,1.8-1.8,2.5-2.9c0.5-0.9,0.9-1.8,1.4-2.7c0.2-0.7-0.7-1.1-1.1-0.5c-0.7,0.5-1.3,1-2,1.5c-0.7,0.6-1.5,1-2.1,1.6
			c-0.8,0.9-1.1,2.1-2,2.9c-0.4,0.4-0.9,0.7-1.4,1c-1.1,0.6-2.3,0.9-3.4,1.5C156.5,232.6,156.3,232.7,156.2,232.9L156.2,232.9z"/>
		<path id="path1163" class="st62" d="M170.5,155.6c0.4,0.7,0.7,1.5,0.7,2.3c0.1,1,0.4,1.9,0.5,2.9c-0.1,1-1.1,1.6-1.3,2.6
			c-0.1,0.7,0,1.4-0.1,2c-0.2,1.1,0.1,2.2-0.3,3.3c-0.5,1-2,0.2-2.9,0.5c-0.9,0.2-2,0.3-2.5-0.6c-0.8-0.8-1.4-1.7-2.3-2.4
			c-1-1-2.1-2-2.8-3.3c-0.6-0.9-1.1-1.8-1.7-2.7c-0.2-0.4-0.4-0.8-0.6-1.2"/>
		<path id="path1165" class="st62" d="M160.7,164.7c-0.9,0-1.7,0.3-2.6,0.2c-0.9,0-1.7,0-2.6,0c-0.6-0.3-1.9-0.3-2.5-0.7
			c-0.7-0.1-1.1-0.6-1.7-0.8c-0.5-0.3-0.9,0-1.5-0.1c-0.4-0.7-1.3-1.6-1.7-2.1c-0.5-0.3-1.1-0.4-1.4-1c-0.5-0.1-1-1-1.2-1.3
			c-0.4-0.5-0.5-1.1-0.9-1.6c-0.4-0.5-0.5-1.1-0.9-1.6c-0.1-0.1,0-0.3,0-0.4"/>
		<path id="path1167" class="st62" d="M149.8,163.3c-0.2,1.3-1.6,0-2.2-0.2c-0.5-0.3-1-0.6-1.6-0.8c-0.4-0.3-1-0.6-1.5-0.8
			c-0.5-0.3-1.2-0.6-1.6-1c-0.8-0.2-1.4-0.9-2.1-1.1c-0.7-0.6-1.4-1.1-2.2-1.6c-0.8-0.6-1.6-1.1-2.4-1.9c-0.7-0.6-1.3-1.3-1.4-2.2
			c-0.1-0.9-0.3-1.8-0.6-2.4c0.1-0.5-0.3-0.6-0.2-1.1"/>
		<path id="path1187" class="st4" d="M208,164c0.8,0,1.6,0,2.4-0.2c0.8,0,1.6-0.4,2.4-0.6c0.8-0.3,1.5-1.2,2.5-1.1
			c0.9,0,1.8,0.3,2.6-0.3c0.5-0.7,1.2-0.9,2-0.8c0.8-0.1,1.6,0.1,2.4,0.3c0.7,0.3,1.5,0.4,2.2,0.7c0.7,0.4,1.4,0.8,2.1,1.1
			c0.7,0.4-0.5,0.9-0.8,1.3c-0.7,0.3-1.6,0-2.3,0.6c-0.7,0.4-1.3,0.8-1.6,1.6c-0.4,0.8-1.4,0.6-2.1,0.8c-0.7,0.1-1.4,0-2.1,0.1
			c-0.6,0-1.3,0.2-1.8-0.1c-0.8-0.2-1.5-0.4-2.3-0.4c-0.6-0.4-1.1-1.1-1.9-1.2c-1.1-0.2-2-1-3.1-1.3
			C208.2,164.4,208.1,164.2,208,164L208,164z"/>
		<path id="path1181" class="st63" d="M109.5,93.4c-1.8-0.4-3.6,0.5-5.4,0.4c-1.7,0.4-3.4,0.1-5.1,0.2c-1.8-0.3-3.7-0.2-5.5,0.1
			c-2.7,0.4-5.3,1.5-8,1.9c-3.7,0.2-7.4,0-11.1,0.1c-2.6,0.2,0.3-3.1,1.7-3c3.4-0.9,6.6-2.1,10.1-2.5c2.6-0.4,5.1-1.2,7.7-1.6
			c2.1-0.6,4.2-1.1,6.3-1.7c2.2-0.4,4.3-0.8,6.5-0.4c2.3-0.6,4.5-1.1,6.7-2c2-1,4.3-0.3,6.1-1.5c1.2-1.7,3.3-1.7,5.2-1.5
			c2,0.4,4.1,1.1,5.3,2.8c1.4,2.1-3,1.8-1.6,4c-0.8,0.8-2.3,1-3.5,0.9c-1-0.1-2.1,0.2-3.1-0.4c-1.7-0.6-3-1.9-4.5-2.8
			c-1.6-0.2-1.7,2.7-3.7,2.4c-2.5,1-5.3,0.7-7.9,0.8c1.7,0.6,3.5,1.2,4.8,2.4C111,93,110.1,93.3,109.5,93.4L109.5,93.4z"/>
		<path id="path1185" class="st14" d="M120.2,86.1l1.7-0.8l0.9-1.5c0,0,1.4,2.2,0.8,2.9C122.8,87.5,120.2,86.1,120.2,86.1
			L120.2,86.1z"/>
		<path id="path1191" class="st14" d="M124.6,82c0.3-0.3-1.4-1.3-0.1-1.6c1.4-1.6,3.5-0.3,5.1,0.2c3.1,1,6.3,2.2,8.3,4.8
			c2.9,3.4,3.6,8,5.9,11.8c1,1.8,1.6,3.8,2.3,5.7c0.5,1.5,2.8,3.1,1.6,4.8c-1.4,0.9-2.9-0.3-4.3-0.7c-1.8-0.2-1,1.9,0.3,2.1
			c1.3,0.5,1.7,2.6-0.2,2.5c-1.8-0.2-3.6-0.4-5.3-0.6c-1.4-0.8,0.4-2.2,1.2-2.7c1-0.6,2.4-1.5,2.2-2.9c0-2.6-1.8-4.7-2.2-7.2
			c-0.5-1.9-0.9-3.8-1.8-5.5c-0.8-4-4.4-6.8-8.2-8c-1.6-0.8-3.3-1.5-4.8-2.4C124.7,82.2,124.7,82.1,124.6,82L124.6,82z"/>
		<path id="path1193" class="st4" d="M138,84c0.5,0.3,1.1,0.6,1.6,0.9c0.4,0.4,1.4,1.9,1.7,2.5c0.2,0.4,0.3,0.9,0.4,1.4
			c0.1,0.6,0.6,1,0.9,1.5c0.3,0.7,0.5,1.4,0.8,2.1c0.4,0.5,0.7,1.1,0.8,1.8c0.1,0.5,0.3,1.1,0.5,1.6c0.3,0.4,0.5,1.3-0.3,1.3
			c-0.5-0.1-1-0.4-1.3-0.8c-0.6-0.5-0.9-1.3-1.3-1.9c-0.3-0.4-0.4-1-0.5-1.4c-0.3-0.5-0.4-1.2-0.6-1.8c-0.3-0.5-0.4-1.2-0.7-1.7
			c-0.4-0.6-0.5-1.3-0.9-1.9c-0.3-0.7-1.5-2.4-1.2-3.3C138,84.3,138,84.1,138,84L138,84z"/>
		<path id="path1195" class="st4" d="M126,79.5c-0.4-0.1-0.7-0.5-1-0.8c-0.3-0.2-0.9-0.4-1.1-0.6c-0.8,0.3-0.1-0.5-0.5-0.4
			c-0.2-0.3-0.2-0.5-0.3-0.8c-0.2-0.3-0.6-0.5-0.8-0.8c0-0.2-0.3-0.4,0-0.4c0.4,0,0.9-0.1,1.2,0.1c0.4-0.1,0.7,0.2,1.1,0.2
			c0.6,0,1.1,0,1.7,0c0.3-0.1,0.3,0.3,0.6,0.2c0.2,0,0.3,0.2,0.5,0.1c0.5,0,0.5,0.5,0.8,0.8c0.3,0.2,0.5,0.6,0.6,0.9
			c0.1,0.1,0.2,0.5,0.1,0.4c0-0.1,0.1,0.4-0.2,0.4c-0.3,0.3-0.7,0.3-1,0.5c-0.4,0-0.7,0.4-1.1,0.3C126.4,79.6,126.2,79.6,126,79.5
			L126,79.5z"/>
		<path id="path1210" class="st14" d="M125,78.8c-0.6,0.3-1.2,0.5-1.9,0.4c-0.4,0.1-0.8,0.4-1.1,0.7c-0.4,0.2-0.8,0.3-1.2,0.4
			c-0.3-0.1-0.6-0.4-1-0.4c-0.3-0.1-0.3-0.5-0.6-0.6c-0.3-0.2-0.7-0.4-1.1-0.5c-0.3-0.1-0.2-0.5-0.2-0.8c0-0.3,0-0.6,0.2-0.9
			c0-0.4,0.4-0.6,0.7-0.5c0.7,0,1.4,0,2.1,0c0.4-0.2,0.8-0.4,1.2-0.3c0.4,0.1,0.6,0.5,0.9,0.8C123.7,77.5,124.3,78.1,125,78.8
			L125,78.8z"/>
		<path id="path1212" class="st14" d="M128.2,77.1c0.5-0.2,1-0.5,1.5-0.5c0.5,0,1,0.2,1.5,0.3c0.5,0.2,1.1,0.3,1.6,0.6
			c0.6,0.2,1.1,0.5,1.6,0.7c0.5,0.3,1,0.6,1.5,0.8c0.5,0.2,0.9,0.5,1.3,0.8c0.5,0.4,0.9,0.7,1.2,1.2c0.3,0.4,0,1-0.5,0.7
			c-0.5-0.3-1-0.5-1.5-0.7c-0.5-0.1-1-0.2-1.4-0.4c-0.5-0.1-1-0.4-1.5-0.6c-0.7-0.3-1.4-0.5-2-0.8c-0.3-0.2-0.7-0.3-1-0.4
			c-0.6-0.3-1.2-0.6-1.9-0.9C128.5,77.6,128.1,77.4,128.2,77.1L128.2,77.1z"/>
		<path id="path1232" d="M135.8,87.9c-2.1-0.2-4.1,0.8-6.2,0.1c-1.5-0.2-2.7,1-4.1,1.5c-1.7-0.2-2.1,2.3-3.6,2.2
			c-1.3-0.2-2.9-1.2-4-0.7c2.6,1.2,5.4,2.4,7.7,4.1c1.3,1.2,2.7,2.2,4.4,2.7c1.1,0.5,2.5,1.6,2,3c-0.5,1.6-2.9,1.9-3,3.7
			c-0.3,1.6-2,2.3-2.6,3.7c-0.6,1.1-2.1,1.8-2.2,3.2c0.3,1.7,2.4,0.4,2.3-0.8c0.3-1.1,1.3-2.8,2.7-2.1c1.1,1.6,2.5-1.1,3.8-0.5
			c0.6,0.9,2.1,1.4,2.7,0.2c0.9-0.4,2.3-1,1.5-2.2c0-1.3,1.6-1.2,2.4-2c1-0.5,2.1-1.8,1-2.8c-1-1.4,0.1-3.4-1.2-4.8
			c-1-1.5,0-3.4-0.8-5c-0.7-1.3-1.2-3.1-2.6-3.7L135.8,87.9z"/>
		<path id="path1253" class="st61" d="M191.1,144c-2.4,0-4.2,1.8-6.6,1.9c-2.8,0.4,0.7,1.7,1.6,2.3c2.2,1.5,4.9,2,7.4,2.9
			c2.3,1.1,5,1.8,7.5,1.4c2.4-0.6,0.6-2.9-0.1-4.3c-1.4-2-3.9-3.1-5.7-4.8C194,142.2,192,142.6,191.1,144L191.1,144z"/>
		<path id="path1264" class="st14" d="M189.5,149c-0.9,0.1-1.7,0.4-2.6,0.3c-1,0.1-2.1,0.3-3-0.3c-1-0.3-2.1-0.5-3.1-1
			c-0.7-0.5-1.7-0.7-2.1-1.5c-0.6-0.9,0.6-0.9,1.2-1c1-0.2,2.2-0.4,3.2-0.2c1.2,0.6,2.4,0.9,3.6,1.5c1,0.4,1.9,0.9,2.6,1.7
			C189.3,148.4,189.5,148.8,189.5,149L189.5,149z"/>
		<path id="path1266" class="st14" d="M201,148.3c0.2,1-1.6,0.1-2.3,0.4c-1.2,0.2-2.3-0.2-3.4-0.7c-1.7-0.8-3.5-1.6-5.4-2.1
			c-0.9-0.2-2.7-1-1.4-2c1-0.8,2.3-1.4,3.6-1.6c1.3-0.1,2.5,0.8,3.7,1.3c1.2,0.6,2.5,1.1,3.6,2C200.2,146.2,201.1,147.2,201,148.3
			L201,148.3z"/>
		<path id="path1270" class="st61" d="M169.1,136.9c-1.7,1-3.7,1.5-5.7,1.5c-1.8,0.7-4.8-0.9-5.4,1.4c-0.9,1.9,1.4,2.7,2.7,3.6
			c3.6,2.1,7.8,2,11.9,2.1c1.1,0.1,4.6-0.4,2.7-1.8c-2-1.5-3.5-3.6-5.1-5.5C169.8,137.8,169.3,137.4,169.1,136.9L169.1,136.9z"/>
		<path id="path1272" class="st61" d="M189.3,138.2c-0.8-0.1-1.6-0.5-2.3-0.7c-1.1-0.4-2-1.1-3-1.6c-1.4-0.8-2.7-1.6-4.1-2.3
			c-0.7-0.2-0.6-1,0.2-0.9c0.8,0,1-1.2,1.8-0.4c0.9,0.6,1.8,1.2,2.5,2c0.9,0.7,1.7,1.6,2.8,1.9C187.9,136.7,189.2,137.1,189.3,138.2
			L189.3,138.2z"/>
		<path id="path1274" class="st61" d="M186.6,141.9c0,0-3.6,0.9-5.3,0.3c-1.2-0.4-2.5-0.6-3.7-1.2c-1.4-0.7-3-1.4-4.1-2.5
			c-0.9-1.1,0.2-2.9,1.7-2.5c0.9-0.3,0.5-2.3,1.9-1.4c1.9,0.8,3.7,1.8,5.3,3c1,0.9,2,1.7,3,2.7C185.7,140.8,186.6,141.9,186.6,141.9
			z"/>
		<path id="path1296" class="st61" d="M159.4,116.3c2.4,0.6,5.3,1.8,6.7,3.9c2.1,2.6-2,4-3.9,2.5c-3.1-1.5-6.2-3.1-9.5-4
			c-3.2,0.4,1.4,2.3,2.3,3.1c1.4,0.8,2.6,2.4,2.6,4c-2.1,1.6-4.8-0.1-7.1-0.3c-2.5-0.3-3.9-2.5-5.5-4.2c-1.2-1.2-2.5-1.9-4-1.2
			c0,2.1,1.5,2.6,2.5,4.4c0.9,1.1,4.2,3.8,1,3.8c-2.4-0.6-4.5-2.2-5.8-4.3c-1.4-1.5-2.6-4.6,0.4-5c2.6-1.5,5.5-2.3,8.5-2.3
			c3.2-0.3,6.5,0.2,9.7-0.6C157.7,116.3,159.7,115.2,159.4,116.3z"/>
		<path id="path1298" class="st14" d="M134.7,118.1c-0.4,0.7-0.7,1.4-0.7,2.1c0,0.9,0,1.7,0.1,2.5c0.2,0.7,0.4,1.4,0.7,2
			c0.4,0.7,1,1.2,1.6,1.7c0.5,0.5,1,0.8,1.6,1.2c0.5,0.3,1,0.5,1.5,0.7c0.5,0.2,1.3,0.4,1.9,0.6c0.7,0.1,1.2,0,1.5-0.6
			c0.7-0.5,0.1-0.8-0.4-1c-0.6-0.1-1.1-0.6-1.6-1c-0.5-0.5-0.9-1-1.3-1.7c-0.2-0.6-0.6-1.1-1-1.6c-0.4-0.4-0.7-0.9-1.2-1.3
			c-0.5-0.5-1-1-1.5-1.6c-0.4-0.5-0.9-1.1-1.3-1.6C134.8,118.5,134.7,118.3,134.7,118.1L134.7,118.1z"/>
		<path id="path1300" class="st14" d="M156.1,126.6c-1.4-0.1-3.5-0.7-5.1-1.2c-1.8-0.6-3.5-1.7-4.6-3.3c-1.4-1.3-2.7-2.6-4.3-3.6
			c-1.6-0.5-2.3,1.8-1.3,2.8c0.9,1.4,2.2,2.6,3.2,3.9c1.2,1.3,2.7,2.2,4.2,3c1.9,1.2,4.2,1.5,6.4,1.7c1.3-0.2,2.8-1,3.2-2.3
			C157.9,126.8,156.8,126.6,156.1,126.6z"/>
		<path id="path1304" class="st14" d="M151.4,137.4c-1.2,0.2-2.5,0.2-3.5-0.5c-1-0.5-1.7-1.5-2.3-2.4c-0.8-1-1.8-2-3-2.4
			c-1.1-0.3-2.4,0.5-2.1,1.7c0.2,1,0.9,1.9,1.7,2.6c1.2,1.2,2.8,1.7,4.2,2.3c0.7,0.4,1.6,0.5,2.5,0.5c0.9,0,2.2,0.3,2.5-0.8
			C151.4,138.1,151.4,137.8,151.4,137.4L151.4,137.4z"/>
		<path id="path1306" class="st14" d="M163.3,134c1,0.4,1.7,1.7,1,2.7c-0.8,1.1-2.1,1.7-3.4,1.5c-1.1,0-2.2,0.1-3.3-0.2
			c-1.2-0.4-2.4-0.9-3.5-1.5c-1.2-0.4-1.4-1.9-2.2-2.7c-0.5-1,1.2-1.4,1.9-1.1c1.2,0.4,1.9,1.5,3.1,2c0.9,0.5,1.9,0.9,2.9,1.1
			c0.9,0.2,2.1,0.4,2.7-0.5C162.7,134.7,163,134.4,163.3,134L163.3,134z"/>
		<path id="path1308" class="st14" d="M173.7,131.4c0.9,0.9,0.3,2.6-0.9,2.9c-1,0.2-2.1,0.4-3.1,0.1c-1.5-0.4-2.9-1.2-4.2-2
			c-0.8-0.7-2-0.9-2.6-1.8c-0.4-1.2,1-2.2,2.1-1.8c1.6,0.5,3.4,0.7,4.9,1.6c1.1,0.5,2.2,1,3.5,1L173.7,131.4z"/>
		<path id="path1342" class="st62" d="M177,119.7c5.3,4.3,10.4,8.8,14.6,14.2c3.2,3.8,5.1,8.9,9.8,11.3c6.6,7,34.8,15.2,34.9,17.4
			c-6.5-2.6-9.3,6.2-15.6,4.8c-5.9,1.7-10.7-2.1-15.8-4.3c-7.6-0.3-15.6,0.1-22.3,4c-3.7,2-8.1-1.1-11-0.1l-0.3,0.6l-0.4,0.4
			 M134.8,154.5c-4.5-2.2-7.8-6.5-12-9c-3.2-4.6-7.4-9.2-7.2-15.2c-0.5-6.2-2.1-14.8,0.8-20.7c-2.1-4.6-5.1-5.9-7.4-10.5
			c-1.7-6.3-8.1-9.9-4.3-14.8c4.3-3.8,7.3-8.3,12.8-10.3c4.6-1.1,9.2-0.6,13.6,1c5.7,0.7,8.8,5.5,11.8,9.7c3.6,5.6,6.1,12,7.1,18.7
			c2.6,5.5,9.6,6.6,14.7,8.9c4.4,2.1,8.8,3.9,12.4,7.2"/>
	</g>
</g>
</svg>
