<?xml version="1.0" encoding="utf-8"?>
<!-- Generator: Adobe Illustrator 27.3.1, SVG Export Plug-In . SVG Version: 6.00 Build 0)  -->
<svg version="1.1" id="Camada_1" xmlns="http://www.w3.org/2000/svg" xmlns:xlink="http://www.w3.org/1999/xlink" x="0px" y="0px"
	 viewBox="0 0 512 512" style="enable-background:new 0 0 512 512;" xml:space="preserve">
<style type="text/css">
	.st0{fill:#29235C;}
	.st1{fill:#E6332A;}
</style>
<g>
	<path class="st0" d="M224,512c-21.3,0-42.7,0-64,0c0-0.3,0.1-0.7,0.1-1c0-43.3-0.1-86.7-0.1-130c0-30.2,0-60.5,0.1-90.7
		c0-1.9-0.6-2.4-2.4-2.4c-8.7,0.1-17.5,0-26.2,0c-42.7,0-85.3,0-128,0c-1.1,0-2.1,0-3.2,0c0-21.4,0-42.5,0-64
		c53.4,0,106.5,0,159.9,0c0-74.8,0-149.2,0-223.7c21.3,0,42.5,0,63.9,0c0,74.7,0,149.2,0,223.8c3.4,0,6.6,0,9.8,0
		c39.6,0,79.2,0,118.7,0.1c37,0,74,0,111,0c16.2,0,32.3,0,48.5-0.1c0,21.3,0,42.7,0,64c-7.5,0-15-0.1-22.5-0.1c-42,0-84,0-126,0
		c-45.7,0-91.5,0-137.2,0c-0.7,0-1.4,0.1-2.4,0.2c0,1.1,0,2,0,2.9c0,53.7,0,107.3,0,161C224,472,224,492,224,512z"/>
	<path class="st1" d="M512,0c0,64,0,128,0,192c-0.9,0-1.8-0.1-2.7-0.1c-46.7,0-93.5,0-140.2,0c-35.1,0-70.1,0.1-105.2,0.2
		c-2.5,0-5.1,0-7.6,0c0-64.3,0-128,0-191.9c1.1,0,2.1,0,3.1,0c83.2,0,166.5,0,249.7,0C510,0.1,511,0,512,0z"/>
	<path class="st1" d="M512,320c0,64,0,128,0,192c-85.3,0-170.7,0-256,0c0-0.4,0.1-0.8,0.1-1.2c0-47.1,0-94.1,0-141.2
		c0-15.7,0-31.3,0-47c0-1.4-0.1-2.5,2-2.5c11.2,0.1,22.5,0,33.7,0c35.2,0,70.5,0,105.7,0.1c27.7,0,55.5,0.1,83.2,0
		C491.2,320.2,501.6,320.1,512,320z"/>
	<path class="st1" d="M0,512c0-1.2,0.1-2.5,0.1-3.7c0-61.6,0-123.1,0-184.7c0-1.1,0-2.1,0-3.4c42.6,0,85,0,127.8,0c0,1,0,2,0,3.1
		c0,61.6,0,123.3,0,184.9c0,1.2,0.1,2.5,0.1,3.7C85.3,512,42.7,512,0,512z"/>
	<path class="st1" d="M127.8,0.1c0,64,0,127.7,0,191.6c-42.5,0-84.9,0-127.7,0c0-1,0-2,0-3c0-61.8,0-123.7,0-185.5
		c0-2.5,0.6-3.2,3.2-3.2c40.6,0.1,81.2,0.1,121.7,0.1C125.8,0.1,126.7,0.1,127.8,0.1z"/>
</g>
</svg>
