<svg width="27" height="26" viewBox="0 0 27 26" fill="none" xmlns="http://www.w3.org/2000/svg">
<path d="M12.4181 3.16443H5.59428C3.33307 3.16443 1.5 4.99744 1.5 7.25857V20.9059C1.5 23.167 3.33307 25 5.59428 25H19.2419C21.5031 25 23.3361 23.167 23.3361 20.9059L23.3361 14.0822M8.32379 18.1763L13.2892 17.1758C13.5528 17.1227 13.7949 16.9929 13.9849 16.8027L25.1005 5.6814C25.6335 5.14819 25.6331 4.28388 25.0997 3.75112L22.745 1.39917C22.2119 0.866627 21.348 0.86699 20.8153 1.39998L9.69852 12.5225C9.5088 12.7123 9.37926 12.9538 9.3261 13.2169L8.32379 18.1763Z" stroke="#F7F4F3" stroke-width="2" stroke-linecap="round" stroke-linejoin="round"/>
</svg>
