<svg width="27" height="26" viewBox="0 0 27 26" fill="none" xmlns="http://www.w3.org/2000/svg">
<path d="M25.0907 22.0589C25.0907 22.0589 23.5405 23.5814 23.1606 24.0278C22.5418 24.6882 21.8126 25 20.8568 25C20.7649 25 20.6669 25 20.5749 24.9939C18.7552 24.8777 17.0641 24.1684 15.7958 23.5631C12.3278 21.8876 9.28257 19.509 6.75205 16.4945C4.66269 13.9814 3.26569 11.6578 2.34049 9.16306C1.77066 7.64051 1.56234 6.45427 1.65425 5.33529C1.71552 4.61987 1.99124 4.02675 2.4998 3.51924L4.58916 1.43414C4.88939 1.15287 5.20801 1 5.52049 1C5.9065 1 6.21899 1.23236 6.41506 1.42803C6.42119 1.43414 6.42731 1.44026 6.43344 1.44637C6.8072 1.7949 7.16257 2.15567 7.53633 2.54089C7.72627 2.73656 7.92234 2.93223 8.11841 3.13401L9.79113 4.80331C10.4406 5.45147 10.4406 6.0507 9.79113 6.69885C9.61344 6.87618 9.44188 7.0535 9.26419 7.22471C8.74951 7.75057 9.15382 7.34709 8.62076 7.82403C8.6085 7.83626 8.59625 7.84237 8.59012 7.8546C8.06319 8.38046 8.16122 8.89409 8.27151 9.24263C8.27764 9.26097 8.28376 9.27931 8.28989 9.29766C8.72492 10.3494 9.33764 11.34 10.269 12.5201L10.2751 12.5262C11.9662 14.6052 13.7492 16.2256 15.716 17.4668C15.9672 17.6258 16.2246 17.7542 16.4697 17.8765C16.6902 17.9866 16.8986 18.0905 17.0763 18.2006C17.1008 18.2128 17.1253 18.2312 17.1498 18.2434C17.3581 18.3473 17.5542 18.3963 17.7564 18.3963C18.2649 18.3963 18.5835 18.0783 18.6877 17.9743L19.8887 16.7758C20.097 16.5679 20.4279 16.3172 20.8139 16.3172C21.1938 16.3172 21.5063 16.5557 21.6962 16.7636C21.7023 16.7697 21.7023 16.7697 21.7085 16.7758L25.0845 20.145C25.7156 20.7687 25.0907 22.0589 25.0907 22.0589Z" stroke="#F7F4F3" stroke-width="2" stroke-linecap="round" stroke-linejoin="round"/>
</svg>
