<svg width="25" height="24" viewBox="0 0 25 24" fill="none" xmlns="http://www.w3.org/2000/svg">
<g clip-path="url(#clip0_21_49)">
<path d="M12.5 0C15.1522 0 17.6959 1.05335 19.5713 2.92871C21.4467 4.80407 22.5 7.34784 22.5 10C22.5 13.9019 20.0154 17.3955 17.7256 19.8125C16.5603 21.0425 15.3988 22.043 14.5293 22.7354C14.094 23.082 13.7299 23.3533 13.4727 23.5391C13.3442 23.6318 13.2419 23.7037 13.1709 23.7529C13.1355 23.7774 13.1073 23.7964 13.0879 23.8096C13.0782 23.8162 13.07 23.8215 13.0645 23.8252C13.0618 23.827 13.0593 23.829 13.0576 23.8301L13.0557 23.8311V23.832C13.0554 23.8322 13.0547 23.8321 12.5 23L13.0547 23.832C12.7188 24.056 12.2812 24.056 11.9453 23.832L12.5 23C11.9453 23.8321 11.9446 23.8322 11.9443 23.832V23.8311L11.9424 23.8301C11.9407 23.829 11.9382 23.827 11.9355 23.8252C11.93 23.8215 11.9218 23.8162 11.9121 23.8096C11.8927 23.7964 11.8645 23.7774 11.8291 23.7529C11.7581 23.7037 11.6558 23.6318 11.5273 23.5391C11.2701 23.3533 10.906 23.082 10.4707 22.7354C9.60124 22.043 8.43969 21.0425 7.27441 19.8125C4.98463 17.3955 2.5 13.9019 2.5 10C2.5 7.34784 3.55335 4.80407 5.42871 2.92871C7.30407 1.05335 9.84784 0 12.5 0ZM12.5 2C10.3783 2 8.34306 2.84248 6.84277 4.34277C5.34248 5.84306 4.5 7.87827 4.5 10C4.5 13.098 6.51539 16.1045 8.72559 18.4375C9.81025 19.5824 10.8988 20.5195 11.7168 21.1709C12.0207 21.4129 12.2872 21.6132 12.5 21.7705C12.7128 21.6132 12.9793 21.4129 13.2832 21.1709C14.1012 20.5195 15.1898 19.5824 16.2744 18.4375C18.4846 16.1045 20.5 13.098 20.5 10L20.4902 9.60352C20.3922 7.62614 19.5638 5.74935 18.1572 4.34277C16.6569 2.84248 14.6217 2 12.5 2ZM12.5 6C14.7091 6 16.5 7.79086 16.5 10C16.5 12.2091 14.7091 14 12.5 14C10.2909 14 8.5 12.2091 8.5 10C8.5 7.79086 10.2909 6 12.5 6ZM12.5 8C11.3954 8 10.5 8.89543 10.5 10C10.5 11.1046 11.3954 12 12.5 12C13.6046 12 14.5 11.1046 14.5 10C14.5 8.89543 13.6046 8 12.5 8Z" fill="#F7F4F3"/>
</g>
<defs>
<clipPath id="clip0_21_49">
<rect width="24" height="24" fill="white" transform="translate(0.5)"/>
</clipPath>
</defs>
</svg>
