<svg width="25" height="24" viewBox="0 0 25 24" fill="none" xmlns="http://www.w3.org/2000/svg">
<g clip-path="url(#clip0_17_176)">
<path d="M24.0078 22.7998C24.203 22.9951 24.2031 23.3126 24.0078 23.5078C23.8126 23.7031 23.4951 23.703 23.2998 23.5078L24.0078 22.7998ZM10.7305 0C16.3805 0 20.9607 4.58045 20.9609 10.2305C20.9609 12.8754 19.9569 15.2856 18.3096 17.1016L24.0078 22.7998L23.6533 23.1533L23.2998 23.5078L17.6016 17.8096C15.7856 19.4569 13.3754 20.4609 10.7305 20.4609C5.08045 20.4607 0.5 15.8805 0.5 10.2305C0.500265 4.58061 5.08061 0.000264575 10.7305 0ZM10.7305 2C6.18518 2.00026 2.50026 5.68518 2.5 10.2305C2.5 14.776 6.18502 18.4607 10.7305 18.4609C15.2761 18.4609 18.9609 14.7761 18.9609 10.2305C18.9607 5.68502 15.276 2 10.7305 2Z" fill="#F7F4F3"/>
</g>
<defs>
<clipPath id="clip0_17_176">
<rect width="24" height="24" fill="white" transform="translate(0.5)"/>
</clipPath>
</defs>
</svg>
