<svg width="27" height="26" viewBox="0 0 27 26" fill="none" xmlns="http://www.w3.org/2000/svg">
<path d="M25.5 17.1725L18.5031 7.94172C18.3315 7.76868 18.1273 7.63134 17.9023 7.53761C17.6773 7.44389 17.436 7.39563 17.1923 7.39563C16.9486 7.39563 16.7073 7.44389 16.4823 7.53761C16.2573 7.63134 16.0532 7.76868 15.8815 7.94172L1.5 25.0002H25.5" stroke="#F7F4F3" stroke-width="2" stroke-linecap="round" stroke-linejoin="round"/>
<path d="M9.23535 15.7692L11.9492 17.6153C12.2619 17.8379 12.6361 17.9576 13.02 17.9576C13.4038 17.9576 13.7781 17.8379 14.0907 17.6153L15.7338 16.3784C16.0534 16.1387 16.4421 16.0092 16.8415 16.0092C17.241 16.0092 17.6296 16.1387 17.9492 16.3784L19.5923 17.6153C19.9031 17.8338 20.2739 17.951 20.6538 17.951C21.0338 17.951 21.4045 17.8338 21.7154 17.6153L24.4477 15.7692" stroke="#F7F4F3" stroke-width="2" stroke-linecap="round" stroke-linejoin="round"/>
<path d="M6.11538 10.2306C8.66439 10.2306 10.7308 8.16427 10.7308 5.61526C10.7308 3.06626 8.66439 0.999878 6.11538 0.999878C3.56638 0.999878 1.5 3.06626 1.5 5.61526C1.5 8.16427 3.56638 10.2306 6.11538 10.2306Z" stroke="#F7F4F3" stroke-width="2" stroke-linecap="round" stroke-linejoin="round"/>
</svg>
