<svg width="25" height="24" viewBox="0 0 25 24" fill="none" xmlns="http://www.w3.org/2000/svg">
<g clip-path="url(#clip0_22_61)">
<path d="M13.748 14.0059C14.9838 14.0672 16.1561 14.5858 17.0352 15.4648C17.9728 16.4025 18.5 17.6739 18.5 19V21C18.5 21.5523 18.0523 22 17.5 22C16.9477 22 16.5 21.5523 16.5 21V19C16.5 18.2044 16.1837 17.4415 15.6211 16.8789C15.1289 16.3867 14.4835 16.0829 13.7969 16.0146L13.5 16H5.5C4.70435 16 3.94152 16.3163 3.37891 16.8789C2.8163 17.4415 2.5 18.2044 2.5 19V21C2.5 21.5523 2.05228 22 1.5 22C0.947715 22 0.5 21.5523 0.5 21V19C0.5 17.6739 1.02716 16.4025 1.96484 15.4648C2.90253 14.5272 4.17392 14 5.5 14H13.5L13.748 14.0059ZM19.5322 14.8799C19.6617 14.3788 20.1486 14.0644 20.6494 14.1406L20.75 14.1621L20.9492 14.2178C21.9401 14.5178 22.8158 15.1185 23.4521 15.9395C24.1308 16.8149 24.4991 17.8913 24.5 18.999V21C24.4999 21.5522 24.0522 22 23.5 22C22.9478 22 22.5001 21.5522 22.5 21V19.001L22.4893 18.7529C22.4411 18.1768 22.2274 17.6248 21.8711 17.165C21.5147 16.7053 21.0333 16.3602 20.4873 16.1699L20.25 16.0977L20.1523 16.0674C19.6769 15.8917 19.4028 15.3812 19.5322 14.8799ZM9.5 2C12.2614 2 14.5 4.23858 14.5 7C14.5 9.76142 12.2614 12 9.5 12C6.73858 12 4.5 9.76142 4.5 7C4.5 4.23858 6.73858 2 9.5 2ZM16.6475 2.14062L16.748 2.16113L16.9482 2.2168C17.9416 2.51562 18.8198 3.11729 19.458 3.93945C20.1385 4.81635 20.5078 5.89491 20.5078 7.00488L20.5039 7.21289C20.4608 8.24908 20.0959 9.24828 19.458 10.0703C18.8198 10.8925 17.9417 11.4941 16.9482 11.793L16.748 11.8486C16.213 11.9856 15.6682 11.663 15.5312 11.1279C15.3943 10.5929 15.717 10.0481 16.252 9.91113L16.4902 9.83984C17.0376 9.65015 17.5205 9.30517 17.8779 8.84473C18.2352 8.3844 18.449 7.83107 18.4971 7.25391L18.5078 7.00488C18.5078 6.3388 18.2864 5.69122 17.8779 5.16504C17.5205 4.70463 17.0376 4.3596 16.4902 4.16992L16.252 4.09863L16.1543 4.06836C15.6784 3.8937 15.4028 3.38345 15.5312 2.88184C15.6597 2.38041 16.1464 2.06533 16.6475 2.14062ZM9.5 4C7.84315 4 6.5 5.34315 6.5 7C6.5 8.65685 7.84315 10 9.5 10C11.1569 10 12.5 8.65685 12.5 7C12.5 5.34315 11.1569 4 9.5 4Z" fill="#F7F4F3"/>
</g>
<defs>
<clipPath id="clip0_22_61">
<rect width="24" height="24" fill="white" transform="translate(0.5)"/>
</clipPath>
</defs>
</svg>
