<svg width="25" height="24" viewBox="0 0 25 24" fill="none" xmlns="http://www.w3.org/2000/svg">
<g clip-path="url(#clip0_65_1926)">
<path d="M17 23V21C17 19.9391 16.5786 18.9217 15.8284 18.1716C15.0783 17.4214 14.0609 17 13 17H6C4.93913 17 3.92172 17.4214 3.17157 18.1716C2.42143 18.9217 2 19.9391 2 21V23" stroke="#39578A" stroke-width="2" stroke-linecap="round" stroke-linejoin="round"/>
<path d="M9.5 13C12.5376 13 15 10.5376 15 7.5C15 4.46243 12.5376 2 9.5 2C6.46243 2 4 4.46243 4 7.5C4 10.5376 6.46243 13 9.5 13Z" stroke="#39578A" stroke-width="2" stroke-linecap="round" stroke-linejoin="round"/>
<path d="M20.5 8V14" stroke="#39578A" stroke-width="2" stroke-linecap="round" stroke-linejoin="round"/>
<path d="M23.5 11H17.5" stroke="#39578A" stroke-width="2" stroke-linecap="round" stroke-linejoin="round"/>
</g>
<defs>
<clipPath id="clip0_65_1926">
<rect width="24" height="24" fill="white" transform="translate(0.5)"/>
</clipPath>
</defs>
</svg>
